<?xml version="1.0" encoding="utf-8"?>
<!-- Generator: Adobe Illustrator 26.0.0, SVG Export Plug-In . SVG Version: 6.00 Build 0)  -->
<svg version="1.1" id="Capa_1" xmlns="http://www.w3.org/2000/svg" xmlns:xlink="http://www.w3.org/1999/xlink" x="0px" y="0px"
	 viewBox="0 0 440 440" style="enable-background:new 0 0 440 440;" xml:space="preserve">
<style type="text/css">
	.st0{fill:url(#SVGID_1_);}
	.st1{fill:url(#SVGID_00000000192490335682853500000009780220394639168918_);}
	.st2{fill:#3B2010;stroke:#3B2010;stroke-width:0.2525;stroke-linecap:round;stroke-linejoin:round;stroke-miterlimit:10;}
	.st3{opacity:0.64;fill:#B06860;}
	.st4{fill:#663B3E;}
	.st5{fill:#306D2E;}
	.st6{opacity:0.27;}
	.st7{fill:#FFFFFF;}
	.st8{fill:url(#SVGID_00000033350267677777363460000005907699312323263890_);}
	.st9{opacity:0.36;}
	.st10{fill:#E88976;}
	.st11{fill:#7C3C11;}
	.st12{fill:#CC875B;stroke:#F8B231;stroke-width:0.2525;stroke-linecap:round;stroke-linejoin:round;stroke-miterlimit:10;}
	.st13{fill:none;stroke:#C77C4C;stroke-width:1.5871;stroke-linecap:round;stroke-linejoin:round;stroke-dasharray:4.433,5.9107;}
	.st14{fill:#FCFAF7;}
	.st15{fill:#BA7254;}
	.st16{fill:url(#SVGID_00000013906077934559288020000007881452296997036429_);}
	.st17{fill:#EA987C;}
	.st18{fill:#EAB27C;}
	.st19{fill:#4F4134;}
	.st20{fill:#C17657;}
	.st21{fill:url(#SVGID_00000083802911042012090360000010730101150920639372_);}
	.st22{fill:#EBA07D;}
	.st23{fill:#B38E6B;stroke:#664838;stroke-width:1.1795;stroke-miterlimit:10;}
	.st24{fill:#AF6637;stroke:#664838;stroke-width:1.1795;stroke-miterlimit:10;}
	.st25{fill:#604610;stroke:#664838;stroke-width:1.1795;stroke-miterlimit:10;}
	.st26{fill:#772715;stroke:#664838;stroke-width:1.1795;stroke-miterlimit:10;}
</style>
<linearGradient id="SVGID_1_" gradientUnits="userSpaceOnUse" x1="-44.8" y1="220" x2="503.3362" y2="220">
	<stop  offset="0.1168" style="stop-color:#F2E8DB"/>
	<stop  offset="1" style="stop-color:#FFEDDB"/>
</linearGradient>
<rect class="st0" width="440" height="440"/>
<g>
	
		<linearGradient id="SVGID_00000019674721496060115290000009800604588973813649_" gradientUnits="userSpaceOnUse" x1="34.8988" y1="220.6087" x2="407.0815" y2="220.6087">
		<stop  offset="0.1704" style="stop-color:#F0D498"/>
		<stop  offset="1" style="stop-color:#E9A686"/>
	</linearGradient>
	<path style="fill:url(#SVGID_00000019674721496060115290000009800604588973813649_);" d="M396.5,432.9H45.5
		c-5.8,0-10.6-4.7-10.6-10.6V18.9c0-5.8,4.7-10.6,10.6-10.6h351.1c5.8,0,10.6,4.7,10.6,10.6v403.4
		C407.1,428.1,402.4,432.9,396.5,432.9z"/>
	<g>
		<path class="st2" d="M161,37.9c0.5,0,0.9,0,1.2-0.1c0.3-0.1,0.6-0.2,0.9-0.3c0.3-0.1,0.5-0.3,0.7-0.4l-0.4,2h-8
			c0.1-0.1,0.2-0.2,0.3-0.4c0.1-0.1,0.2-0.3,0.2-0.5c0.1-0.2,0.1-0.5,0.1-0.8v-8.6c0-0.3,0-0.6-0.1-0.8c-0.1-0.2-0.2-0.4-0.2-0.5
			c-0.1-0.2-0.2-0.3-0.3-0.4h7.8v2c-0.2-0.1-0.4-0.2-0.6-0.4c-0.2-0.1-0.5-0.2-0.8-0.2c-0.3-0.1-0.7-0.1-1.1-0.1h-2.3v3.8h4.2
			l-0.3,1.7c-0.1-0.1-0.3-0.2-0.5-0.2c-0.2-0.1-0.4-0.1-0.6-0.2c-0.3-0.1-0.6-0.1-0.9-0.1h-1.8v4.3H161z"/>
		<path class="st2" d="M174.1,37.5c0,0.3,0,0.6,0.1,0.8s0.1,0.4,0.2,0.5c0.1,0.2,0.2,0.3,0.3,0.4h-1.4c-0.3,0-0.6-0.1-0.8-0.3
			s-0.4-0.4-0.5-0.7c-0.3,0.2-0.6,0.5-1,0.7c-0.4,0.2-0.9,0.3-1.4,0.3c-0.5,0-0.9-0.1-1.3-0.2c-0.4-0.2-0.7-0.4-1-0.7
			c-0.3-0.3-0.5-0.8-0.7-1.3c-0.2-0.5-0.2-1.1-0.2-1.8c0-0.6,0.1-1.2,0.3-1.7s0.5-0.9,0.8-1.3c0.3-0.4,0.7-0.6,1.2-0.8
			c0.5-0.2,1-0.3,1.5-0.3c0.4,0,0.7,0,1,0.1c0.3,0.1,0.6,0.2,0.8,0.3v-2.4c0-0.3,0-0.5-0.1-0.7c-0.1-0.2-0.2-0.3-0.2-0.5
			c-0.1-0.1-0.2-0.2-0.3-0.3l2.8-0.3V37.5z M168.5,35.2c0,0.5,0,1,0.1,1.4c0.1,0.4,0.2,0.7,0.4,0.9c0.2,0.2,0.4,0.4,0.6,0.5
			c0.2,0.1,0.5,0.2,0.7,0.2c0.4,0,0.8-0.1,1.1-0.3c0.3-0.2,0.5-0.4,0.7-0.5v-4.9c-0.1-0.1-0.3-0.2-0.5-0.3c-0.2-0.1-0.5-0.1-0.7-0.1
			c-0.3,0-0.6,0.1-0.9,0.2c-0.3,0.1-0.5,0.3-0.7,0.6c-0.2,0.2-0.4,0.6-0.5,1C168.5,34.2,168.5,34.6,168.5,35.2z"/>
		<path class="st2" d="M180.1,37.5c0,0.3,0,0.6,0.1,0.8c0.1,0.2,0.1,0.4,0.2,0.5c0.1,0.2,0.2,0.3,0.4,0.4h-3.4
			c0.1-0.1,0.2-0.2,0.3-0.4c0.1-0.1,0.2-0.3,0.2-0.5c0.1-0.2,0.1-0.5,0.1-0.8V33c0-0.3,0-0.6-0.1-0.8c-0.1-0.2-0.2-0.4-0.2-0.5
			c-0.1-0.2-0.2-0.3-0.3-0.4l2.8-0.3V37.5z M178.8,29.9c-0.3,0-0.6-0.1-0.9-0.4c-0.2-0.2-0.4-0.5-0.4-0.9c0-0.3,0.1-0.6,0.4-0.9
			c0.2-0.2,0.5-0.4,0.9-0.4c0.4,0,0.7,0.1,0.9,0.4c0.2,0.2,0.4,0.5,0.4,0.9c0,0.4-0.1,0.7-0.4,0.9C179.5,29.8,179.2,29.9,178.8,29.9
			z"/>
		<path class="st2" d="M185.3,32.6c0,0.2,0.1,0.5,0.3,0.6c0.2,0.2,0.5,0.4,0.8,0.5c0.3,0.2,0.7,0.3,1.1,0.5c0.4,0.2,0.7,0.4,1.1,0.6
			c0.3,0.2,0.6,0.5,0.8,0.8c0.2,0.3,0.3,0.7,0.3,1.1c0,0.4-0.1,0.7-0.3,1c-0.2,0.3-0.4,0.6-0.7,0.8c-0.3,0.2-0.7,0.3-1.1,0.4
			c-0.4,0.1-0.9,0.2-1.3,0.2c-0.5,0-0.9,0-1.3-0.1c-0.4-0.1-0.7-0.2-0.9-0.2c-0.3-0.1-0.5-0.2-0.8-0.4l-0.2-1.9
			c0.3,0.3,0.5,0.5,0.8,0.8c0.3,0.2,0.6,0.4,0.9,0.5c0.4,0.2,0.7,0.2,1.2,0.2c0.5,0,0.9-0.1,1.1-0.2c0.3-0.2,0.4-0.4,0.4-0.8
			c0-0.3-0.1-0.5-0.3-0.7c-0.2-0.2-0.5-0.4-0.8-0.6c-0.3-0.2-0.7-0.4-1.1-0.5c-0.4-0.2-0.7-0.4-1.1-0.6c-0.3-0.2-0.6-0.5-0.8-0.8
			c-0.2-0.3-0.3-0.6-0.3-1c0-0.3,0.1-0.5,0.2-0.8c0.1-0.2,0.3-0.5,0.5-0.7c0.2-0.2,0.6-0.4,0.9-0.5c0.4-0.1,0.8-0.2,1.4-0.2
			c0.4,0,0.7,0,1.1,0.1c0.3,0.1,0.6,0.1,0.9,0.2c0.3,0.1,0.6,0.2,0.8,0.3V33c-0.2-0.2-0.5-0.4-0.7-0.5c-0.2-0.1-0.5-0.3-0.8-0.4
			c-0.3-0.1-0.7-0.2-1.1-0.2c-0.4,0-0.7,0.1-0.9,0.2C185.4,32.2,185.3,32.4,185.3,32.6z"/>
		<path class="st2" d="M194.9,37.5c0,0.3,0,0.6,0.1,0.8c0.1,0.2,0.1,0.4,0.2,0.5c0.1,0.2,0.2,0.3,0.4,0.4h-3.4
			c0.1-0.1,0.2-0.2,0.3-0.4c0.1-0.1,0.2-0.3,0.2-0.5c0.1-0.2,0.1-0.5,0.1-0.8V33c0-0.3,0-0.6-0.1-0.8c-0.1-0.2-0.2-0.4-0.2-0.5
			c-0.1-0.2-0.2-0.3-0.3-0.4l2.8-0.3V37.5z M193.6,29.9c-0.3,0-0.6-0.1-0.9-0.4c-0.2-0.2-0.4-0.5-0.4-0.9c0-0.3,0.1-0.6,0.4-0.9
			c0.2-0.2,0.5-0.4,0.9-0.4c0.4,0,0.7,0.1,0.9,0.4c0.2,0.2,0.4,0.5,0.4,0.9c0,0.4-0.1,0.7-0.4,0.9C194.2,29.8,193.9,29.9,193.6,29.9
			z"/>
		<path class="st2" d="M202,31c0.6,0,1.2,0.1,1.7,0.3c0.5,0.2,0.9,0.4,1.3,0.8c0.4,0.3,0.7,0.8,0.9,1.3c0.2,0.5,0.3,1.1,0.3,1.8
			c0,0.7-0.1,1.3-0.3,1.8c-0.2,0.5-0.5,1-0.9,1.3c-0.4,0.3-0.8,0.6-1.3,0.8c-0.5,0.2-1.1,0.3-1.7,0.3c-0.6,0-1.2-0.1-1.7-0.3
			c-0.5-0.2-0.9-0.4-1.3-0.8c-0.4-0.4-0.7-0.8-0.9-1.3c-0.2-0.5-0.3-1.1-0.3-1.8c0-0.7,0.1-1.3,0.3-1.8c0.2-0.5,0.5-1,0.9-1.3
			c0.4-0.4,0.8-0.6,1.3-0.8C200.9,31.1,201.4,31,202,31z M201.8,32.1c-0.3,0-0.5,0.1-0.8,0.2c-0.2,0.1-0.5,0.3-0.6,0.5
			c-0.2,0.2-0.3,0.6-0.4,0.9c-0.1,0.4-0.1,0.9-0.1,1.4s0.1,1,0.3,1.4c0.1,0.4,0.3,0.7,0.5,0.9c0.2,0.2,0.4,0.4,0.7,0.5
			s0.5,0.2,0.8,0.2s0.5-0.1,0.8-0.2s0.5-0.3,0.6-0.5c0.2-0.2,0.3-0.6,0.4-0.9c0.1-0.4,0.1-0.9,0.1-1.4c0-0.6-0.1-1-0.3-1.4
			c-0.1-0.4-0.3-0.7-0.5-0.9c-0.2-0.2-0.4-0.4-0.7-0.5S202.1,32.1,201.8,32.1z M203.7,28.8l-2.2,1.4h-1.2l2.4-2.4L203.7,28.8z"/>
		<path class="st2" d="M216.9,38.3c0.1,0.2,0.1,0.4,0.2,0.5c0.1,0.2,0.2,0.3,0.4,0.4H214c0.1-0.1,0.2-0.2,0.3-0.4
			c0.1-0.1,0.2-0.3,0.2-0.5c0.1-0.2,0.1-0.5,0.1-0.8v-3.4c0-0.8-0.1-1.3-0.4-1.5c-0.3-0.3-0.7-0.4-1.1-0.4c-0.3,0-0.5,0.1-0.7,0.2
			c-0.2,0.1-0.4,0.2-0.5,0.4c-0.2,0.1-0.3,0.3-0.4,0.4c-0.1,0.1-0.2,0.3-0.2,0.3v4c0,0.3,0,0.6,0.1,0.8c0.1,0.2,0.1,0.4,0.2,0.5
			c0.1,0.2,0.2,0.3,0.4,0.4h-3.4c0.1-0.1,0.2-0.2,0.3-0.4c0.1-0.1,0.2-0.3,0.2-0.5c0.1-0.2,0.1-0.5,0.1-0.8V33c0-0.3,0-0.6-0.1-0.8
			c-0.1-0.2-0.2-0.4-0.2-0.5c-0.1-0.2-0.2-0.3-0.3-0.4l2.8-0.3v1c0.3-0.2,0.6-0.5,1-0.7c0.4-0.2,0.9-0.3,1.4-0.3
			c1,0,1.7,0.3,2.3,0.8c0.5,0.5,0.8,1.4,0.8,2.6v3.1C216.8,37.8,216.8,38,216.9,38.3z"/>
		<path class="st2" d="M229,31.2c0.3-0.3,0.7-0.4,1.2-0.4c0.1,0,0.3,0,0.4,0c0.1,0,0.2,0,0.3,0.1c0.1,0,0.2,0,0.2,0v1.8
			c-0.1,0-0.2-0.1-0.3-0.1c-0.1,0-0.2-0.1-0.4-0.1c-0.1,0-0.3,0-0.5,0c-0.4,0-0.8,0.1-1,0.3c-0.2,0.2-0.4,0.5-0.5,0.7
			c-0.1,0.3-0.2,0.5-0.2,0.8c0,0.2,0,0.3,0,0.4v2.8c0,0.3,0,0.6,0.1,0.8c0.1,0.2,0.1,0.4,0.2,0.5c0.1,0.2,0.2,0.3,0.4,0.4h-3.4
			c0.1-0.1,0.2-0.2,0.3-0.4c0.1-0.1,0.2-0.3,0.2-0.5c0.1-0.2,0.1-0.5,0.1-0.8v-4.8c0-0.3,0-0.6-0.1-0.8c-0.1-0.2-0.2-0.4-0.2-0.5
			c-0.1-0.2-0.2-0.3-0.3-0.4h2.8v1.2C228.4,31.8,228.7,31.5,229,31.2z"/>
		<path class="st2" d="M237.4,31c1.2,0,2.2,0.4,2.9,1.1c0.7,0.7,1,1.8,1,3.1h-5.9c0,0.5,0.1,0.9,0.2,1.3c0.1,0.4,0.3,0.7,0.6,0.9
			c0.2,0.2,0.5,0.4,0.8,0.5c0.3,0.1,0.7,0.2,1,0.2c0.5,0,1-0.1,1.4-0.2c0.4-0.1,0.7-0.3,1-0.4c0.3-0.2,0.6-0.4,0.8-0.6l-0.2,1.7
			c-0.3,0.1-0.5,0.2-0.9,0.3c-0.3,0.1-0.6,0.1-1,0.2c-0.4,0.1-0.9,0.1-1.4,0.1c-0.7,0-1.3-0.1-1.8-0.3c-0.5-0.2-1-0.5-1.4-0.8
			c-0.4-0.4-0.7-0.8-0.9-1.3c-0.2-0.5-0.3-1.1-0.3-1.8c0-0.7,0.1-1.3,0.3-1.8c0.2-0.5,0.5-0.9,0.9-1.3c0.4-0.3,0.8-0.6,1.3-0.7
			C236.4,31.1,236.9,31,237.4,31z M237.4,31.9c-0.5,0-1,0.2-1.4,0.5c-0.4,0.3-0.6,0.9-0.7,1.7h3.8c0-0.3,0-0.6-0.1-0.9
			c-0.1-0.3-0.2-0.5-0.3-0.7c-0.1-0.2-0.3-0.4-0.6-0.5C238.1,32,237.8,31.9,237.4,31.9z"/>
		<path class="st2" d="M246.1,38.1c0,0.2,0.1,0.3,0.3,0.4c0.2,0.1,0.4,0.2,0.8,0.2c0.3,0,0.7,0.1,1.1,0.1c0.4,0,0.8,0,1.2,0.1
			c0.4,0,0.8,0.1,1.2,0.2c0.4,0.1,0.8,0.2,1.1,0.4c0.3,0.2,0.6,0.4,0.8,0.7c0.2,0.3,0.3,0.6,0.3,1c0,0.4-0.1,0.8-0.4,1.1
			c-0.2,0.3-0.6,0.6-1,0.9c-0.4,0.2-0.9,0.4-1.5,0.6c-0.6,0.1-1.2,0.2-1.9,0.2c-0.7,0-1.3-0.1-1.8-0.2c-0.5-0.1-1-0.3-1.3-0.5
			c-0.4-0.2-0.6-0.4-0.8-0.7c-0.2-0.3-0.3-0.5-0.3-0.8c0-0.4,0.1-0.7,0.3-0.8c0.2-0.2,0.5-0.3,0.7-0.4c0.3-0.1,0.7-0.1,1.1,0
			c-0.1,0.1-0.1,0.1-0.2,0.2c0,0.1-0.1,0.1-0.1,0.2c0,0.1,0,0.2,0,0.3c0,0.3,0.1,0.5,0.2,0.7c0.1,0.2,0.3,0.4,0.6,0.5
			s0.5,0.3,0.8,0.3c0.3,0.1,0.6,0.1,1,0.1c0.5,0,0.9-0.1,1.2-0.2c0.3-0.1,0.6-0.2,0.8-0.4c0.2-0.2,0.3-0.3,0.4-0.5
			c0.1-0.2,0.1-0.4,0.1-0.5c0-0.4-0.2-0.7-0.5-0.9c-0.3-0.2-0.7-0.3-1.1-0.4c-0.5-0.1-0.9-0.1-1.5-0.1c-0.5,0-1,0-1.5-0.1
			c-0.5-0.1-0.8-0.2-1.1-0.3c-0.3-0.2-0.5-0.4-0.5-0.8c0-0.2,0.1-0.4,0.2-0.6c0.1-0.2,0.2-0.3,0.4-0.5c0.2-0.1,0.3-0.3,0.5-0.4
			c0.2-0.1,0.3-0.2,0.5-0.3c-0.6-0.3-1.1-0.7-1.4-1.2c-0.3-0.5-0.5-1-0.5-1.6c0-0.4,0.1-0.9,0.3-1.2s0.5-0.7,0.8-1
			c0.3-0.3,0.8-0.5,1.2-0.7c0.5-0.2,1-0.3,1.6-0.3c0.2,0,0.5,0,0.8,0c0.4-0.7,0.9-1.1,1.3-1.3c0.4-0.2,0.8-0.2,1.2-0.1
			c0.2,0.1,0.3,0.2,0.4,0.4c0.1,0.2,0.2,0.3,0.2,0.5c0,0.2,0.1,0.4,0.1,0.6c-0.2-0.1-0.4-0.2-0.6-0.2c-0.2,0-0.4,0-0.6,0
			c-0.2,0-0.4,0.1-0.5,0.1c-0.2,0.1-0.3,0.1-0.5,0.2c0.7,0.3,1.2,0.6,1.6,1.2c0.4,0.5,0.6,1.1,0.6,1.8c0,0.4-0.1,0.9-0.3,1.2
			c-0.2,0.4-0.4,0.7-0.8,1c-0.3,0.3-0.8,0.5-1.2,0.7c-0.5,0.2-1,0.3-1.6,0.3c-0.4,0-0.8,0-1.2-0.1c-0.2,0.1-0.4,0.2-0.5,0.4
			C246.2,37.8,246.1,38,246.1,38.1z M247.9,32.1c-0.6,0-1,0.2-1.3,0.6c-0.3,0.4-0.4,0.9-0.4,1.6c0.1,0.7,0.3,1.2,0.6,1.6
			c0.4,0.4,0.9,0.6,1.4,0.6c0.6,0,1-0.2,1.3-0.6c0.3-0.4,0.4-0.9,0.4-1.6c-0.1-0.7-0.3-1.2-0.7-1.6
			C248.9,32.3,248.4,32.1,247.9,32.1z"/>
		<path class="st2" d="M257.4,37.5c0,0.3,0,0.6,0.1,0.8c0.1,0.2,0.1,0.4,0.2,0.5c0.1,0.2,0.2,0.3,0.4,0.4h-3.4
			c0.1-0.1,0.2-0.2,0.3-0.4c0.1-0.1,0.2-0.3,0.2-0.5c0.1-0.2,0.1-0.5,0.1-0.8V33c0-0.3,0-0.6-0.1-0.8c-0.1-0.2-0.2-0.4-0.2-0.5
			c-0.1-0.2-0.2-0.3-0.3-0.4l2.8-0.3V37.5z M256.1,29.9c-0.3,0-0.6-0.1-0.9-0.4c-0.2-0.2-0.4-0.5-0.4-0.9c0-0.3,0.1-0.6,0.4-0.9
			c0.2-0.2,0.5-0.4,0.9-0.4c0.4,0,0.7,0.1,0.9,0.4c0.2,0.2,0.4,0.5,0.4,0.9c0,0.4-0.1,0.7-0.4,0.9C256.8,29.8,256.5,29.9,256.1,29.9
			z"/>
		<path class="st2" d="M264.5,31c0.6,0,1.2,0.1,1.7,0.3c0.5,0.2,0.9,0.4,1.3,0.8c0.4,0.3,0.7,0.8,0.9,1.3c0.2,0.5,0.3,1.1,0.3,1.8
			c0,0.7-0.1,1.3-0.3,1.8c-0.2,0.5-0.5,1-0.9,1.3c-0.4,0.3-0.8,0.6-1.3,0.8c-0.5,0.2-1.1,0.3-1.7,0.3c-0.6,0-1.2-0.1-1.7-0.3
			c-0.5-0.2-0.9-0.4-1.3-0.8c-0.4-0.4-0.7-0.8-0.9-1.3c-0.2-0.5-0.3-1.1-0.3-1.8c0-0.7,0.1-1.3,0.3-1.8c0.2-0.5,0.5-1,0.9-1.3
			c0.4-0.4,0.8-0.6,1.3-0.8C263.4,31.1,263.9,31,264.5,31z M264.3,32.1c-0.3,0-0.5,0.1-0.8,0.2c-0.2,0.1-0.5,0.3-0.6,0.5
			c-0.2,0.2-0.3,0.6-0.4,0.9c-0.1,0.4-0.1,0.9-0.1,1.4s0.1,1,0.3,1.4s0.3,0.7,0.5,0.9c0.2,0.2,0.4,0.4,0.7,0.5
			c0.3,0.1,0.5,0.2,0.8,0.2c0.3,0,0.5-0.1,0.8-0.2c0.2-0.1,0.5-0.3,0.6-0.5c0.2-0.2,0.3-0.6,0.4-0.9s0.1-0.9,0.1-1.4
			c0-0.6-0.1-1-0.3-1.4c-0.1-0.4-0.3-0.7-0.5-0.9s-0.4-0.4-0.7-0.5C264.9,32.2,264.6,32.1,264.3,32.1z"/>
		<path class="st2" d="M279.4,38.3c0.1,0.2,0.1,0.4,0.2,0.5c0.1,0.2,0.2,0.3,0.4,0.4h-3.4c0.1-0.1,0.2-0.2,0.3-0.4
			c0.1-0.1,0.2-0.3,0.2-0.5c0.1-0.2,0.1-0.5,0.1-0.8v-3.4c0-0.8-0.1-1.3-0.4-1.5c-0.3-0.3-0.7-0.4-1.1-0.4c-0.3,0-0.5,0.1-0.7,0.2
			c-0.2,0.1-0.4,0.2-0.5,0.4c-0.2,0.1-0.3,0.3-0.4,0.4c-0.1,0.1-0.2,0.3-0.2,0.3v4c0,0.3,0,0.6,0.1,0.8c0.1,0.2,0.1,0.4,0.2,0.5
			c0.1,0.2,0.2,0.3,0.4,0.4H271c0.1-0.1,0.2-0.2,0.3-0.4c0.1-0.1,0.2-0.3,0.2-0.5c0.1-0.2,0.1-0.5,0.1-0.8V33c0-0.3,0-0.6-0.1-0.8
			c-0.1-0.2-0.2-0.4-0.2-0.5c-0.1-0.2-0.2-0.3-0.3-0.4l2.8-0.3v1c0.3-0.2,0.6-0.5,1-0.7c0.4-0.2,0.9-0.3,1.4-0.3
			c1,0,1.7,0.3,2.3,0.8c0.5,0.5,0.8,1.4,0.8,2.6v3.1C279.3,37.8,279.3,38,279.4,38.3z"/>
		<path class="st2" d="M289.5,37.5c0,0.3,0,0.6,0.1,0.8c0.1,0.2,0.2,0.4,0.2,0.5c0.1,0.2,0.2,0.3,0.4,0.4h-1.4
			c-0.3,0-0.5-0.1-0.7-0.2c-0.2-0.2-0.4-0.4-0.5-0.6c-0.1,0.1-0.2,0.2-0.4,0.3c-0.2,0.1-0.4,0.2-0.6,0.3c-0.2,0.1-0.5,0.2-0.7,0.3
			c-0.3,0.1-0.6,0.1-0.9,0.1c-0.3,0-0.6,0-0.9-0.1c-0.3-0.1-0.6-0.2-0.8-0.4c-0.2-0.2-0.4-0.4-0.5-0.7c-0.1-0.3-0.2-0.6-0.2-1
			c0-0.5,0.1-1,0.4-1.3c0.3-0.3,0.7-0.6,1.1-0.8c0.5-0.2,1-0.4,1.6-0.4c0.6-0.1,1.2-0.1,1.8-0.1v-0.7c0-0.4-0.1-0.8-0.3-1
			c-0.2-0.3-0.6-0.4-1.1-0.4c-0.3,0-0.6,0-0.9,0.1c-0.3,0.1-0.5,0.2-0.7,0.3c-0.3,0.1-0.5,0.3-0.7,0.4v-1.6c0.2-0.1,0.5-0.2,0.8-0.3
			c0.3-0.1,0.5-0.1,0.9-0.2c0.3-0.1,0.7-0.1,1.1-0.1c0.4,0,0.8,0.1,1.2,0.2c0.4,0.2,0.7,0.4,1,0.7c0.3,0.3,0.5,0.6,0.7,1
			c0.2,0.4,0.2,0.8,0.2,1.2V37.5z M284.5,37c0,0.4,0.1,0.7,0.3,0.9c0.2,0.3,0.5,0.4,1,0.4c0.2,0,0.4,0,0.6-0.1
			c0.2,0,0.3-0.1,0.5-0.2c0.1-0.1,0.2-0.1,0.3-0.2c0.1-0.1,0.2-0.1,0.2-0.2v-2.6c-0.2,0-0.5,0-0.8,0.1c-0.3,0-0.6,0.1-0.9,0.3
			c-0.3,0.1-0.6,0.3-0.8,0.6C284.6,36.2,284.5,36.6,284.5,37z"/>
		<path class="st2" d="M295.5,38.3c0.1,0.2,0.2,0.4,0.2,0.5c0.1,0.2,0.2,0.3,0.3,0.4h-3.5c0.1-0.1,0.2-0.2,0.3-0.4
			c0.1-0.1,0.2-0.3,0.2-0.5c0.1-0.2,0.1-0.5,0.1-0.8v-8.6c0-0.3,0-0.6-0.1-0.8c-0.1-0.2-0.2-0.4-0.2-0.5c-0.1-0.2-0.2-0.3-0.3-0.4
			l2.8-0.3v10.6C295.4,37.8,295.5,38,295.5,38.3z"/>
	</g>
	<rect x="35.9" y="308.2" class="st3" width="371.1" height="53.4"/>
	<rect x="44.4" y="317" class="st4" width="351.4" height="35"/>
	<path class="st5" d="M142.3,232.8"/>
	<g class="st6">
		<image style="overflow:visible;" width="416" height="192" xlink:href="6C99DE14.png"  transform="matrix(1 0 0 1 18 140)">
		</image>
	</g>
	<g>
		<path class="st2" d="M161.4,111.8v0.5h-10v-0.5l1.9-3V93.8l-1.9-3v-0.5H169v6h-0.5l-3.7-2.6h-5.8l-0.1,6.6l4.7,0l2.9-1.4h0.5v6.4
			h-0.5l-2.9-1.7h-4.7v5.2L161.4,111.8z"/>
		<path class="st2" d="M183.3,111.9v0.4h-8.9v-0.4l1.6-2.8v-9.3l-1.6-2.9v-0.3h6.6v3.4c0.4-1.5,0.9-2.5,1.6-3
			c0.7-0.6,1.5-0.8,2.5-0.8c0.2,0,0.3,0,0.4,0c0.1,0,0.2,0,0.4,0c0.2,0,0.4,0.1,0.6,0.2v4.9c0,0-0.1-0.1-0.2-0.1
			c-0.1,0-0.2-0.1-0.3-0.1c-0.2-0.1-0.5-0.1-0.8-0.1c-1.2,0-2.1,0.4-2.7,1.3c-0.7,0.9-1,2.1-1,3.5v3.3L183.3,111.9z"/>
		<path class="st2" d="M208.4,109.1l1.5,2.9v0.3h-6.5v-2.5c-0.3,1-0.9,1.7-1.8,2.2c-1,0.5-2,0.7-3.2,0.7c-1.6,0-2.7-0.4-3.4-1.2
			c-0.7-0.8-1.1-2.1-1.1-3.8v-7.9l-1.6-2.9v-0.3h6.9v10.1c0,0.7,0.1,1.3,0.4,1.7c0.3,0.4,0.7,0.5,1.3,0.5c0.6,0,1.1-0.3,1.5-0.8
			c0.4-0.5,0.6-1.3,0.6-2.2v-6.2l-1.5-2.9v-0.3h7V109.1z"/>
		<path class="st2" d="M223,109c0.4,0.3,0.9,0.5,1.6,0.5c0.3,0,0.6-0.1,0.9-0.4c0.3-0.2,0.5-0.5,0.6-0.8c0.2-0.3,0.3-0.6,0.4-1
			c0.1-0.3,0.1-0.6,0.1-0.8h0.3c0,0.2,0,0.4,0,0.6c0,0.2,0,0.4,0,0.6c0,1.7-0.4,3-1.2,3.8c-0.8,0.8-2,1.2-3.7,1.2
			c-1.8,0-3.1-0.4-3.9-1.2c-0.8-0.8-1.2-2.1-1.2-4V98h-1.8v-3.2h1.8v-2.3l5.3-1.9v4.2h3.6V98h-3.6v9.3
			C222.3,108.1,222.6,108.7,223,109z"/>
		<path class="st2" d="M240.7,112.1c-0.8,0.4-1.7,0.7-2.8,0.7c-0.7,0-1.4-0.1-2.1-0.3c-0.7-0.2-1.2-0.5-1.7-0.9
			c-0.5-0.4-0.9-0.9-1.2-1.5c-0.3-0.6-0.4-1.3-0.4-2.1c0-0.9,0.2-1.7,0.5-2.3c0.3-0.6,0.7-1.1,1.2-1.5c0.5-0.4,1.1-0.7,1.7-0.9
			c0.7-0.2,1.4-0.4,2.1-0.4c0.7-0.1,1.5-0.1,2.2-0.1c0.7,0,1.5,0,2.1,0v-0.1c0-0.4-0.1-0.8-0.2-1.2c-0.1-0.4-0.3-0.8-0.6-1.2
			c-0.3-0.4-0.7-0.7-1.2-0.9c-0.5-0.2-1.1-0.3-1.9-0.3c-0.4,0-0.8,0.1-1.3,0.2c-0.5,0.2-0.9,0.4-1.4,0.6c-0.4,0.3-0.8,0.6-1.1,0.9
			c-0.3,0.3-0.5,0.6-0.5,1h-0.7c0.1-1,0.3-1.9,0.6-2.6c0.3-0.7,0.8-1.3,1.4-1.7c0.6-0.4,1.3-0.7,2-0.9c0.8-0.2,1.6-0.3,2.6-0.3
			c1.1,0,2,0.1,2.9,0.3c0.9,0.2,1.6,0.5,2.3,1c0.6,0.5,1.1,1.1,1.5,1.9c0.4,0.8,0.5,1.8,0.5,2.9v6.8l1.4,2.9v0.3h-6.1v-2.4
			C242,110.9,241.4,111.6,240.7,112.1z M240.9,105.2c-0.4,0-0.9,0-1.3,0.1c-0.4,0.1-0.8,0.2-1.1,0.4c-0.3,0.2-0.6,0.5-0.8,0.8
			s-0.3,0.8-0.3,1.3c0,0.5,0.2,1,0.5,1.3s0.7,0.5,1.3,0.5c0.6,0,1.1-0.1,1.5-0.4c0.4-0.3,0.7-0.6,1-1c0.2-0.4,0.4-0.9,0.5-1.4
			c0.1-0.5,0.2-1,0.2-1.5H240.9z"/>
		<path class="st2" d="M253.6,90.6h6.9V109l1.5,2.9v0.3h-8.4V112l1.6-2.9V93.8l-1.6-2.9V90.6z"/>
		<path class="st2" d="M280.6,110.2c-0.5,0.6-1,1.1-1.6,1.5c-0.6,0.4-1.4,0.7-2.1,0.8c-0.8,0.2-1.6,0.2-2.4,0.2
			c-2.7,0-4.7-0.7-6.1-2.1c-1.3-1.4-2-3.5-2-6.2c0-1.2,0.2-2.3,0.5-3.3c0.4-1,0.9-1.9,1.5-2.6c0.7-0.7,1.5-1.3,2.5-1.7
			c1-0.4,2.1-0.6,3.3-0.6c1.3,0,2.4,0.2,3.3,0.6c0.9,0.4,1.7,0.9,2.4,1.7c0.6,0.7,1.1,1.6,1.4,2.6c0.3,1,0.5,2.1,0.5,3.3
			c0,0.2,0,0.5,0,0.7c0,0.2,0,0.5,0,0.7h-10.1c0.1,0.5,0.2,0.9,0.4,1.3c0.2,0.4,0.5,0.8,0.9,1.1c0.4,0.3,0.8,0.6,1.3,0.9
			c0.5,0.2,1,0.4,1.6,0.5c0.5,0.1,1.1,0.1,1.7,0.1s1.1-0.2,1.6-0.3c0.5-0.2,0.9-0.4,1.3-0.6c0.3-0.2,0.5-0.5,0.5-0.8h0.7
			C281.4,108.8,281.1,109.5,280.6,110.2z M276.4,103c0-0.4,0-0.8-0.1-1.2c0-0.4-0.1-0.8-0.3-1.2c-0.2-0.4-0.4-0.7-0.7-0.9
			c-0.3-0.2-0.7-0.4-1.2-0.4c-0.6,0-1,0.1-1.3,0.3c-0.3,0.2-0.6,0.5-0.7,0.8c-0.2,0.3-0.3,0.7-0.4,1.2c-0.1,0.4-0.1,0.9-0.2,1.3
			H276.4z"/>
		<path class="st2" d="M300.1,109.9c-0.4,0.6-0.9,1.1-1.5,1.5c-0.6,0.4-1.3,0.7-2.1,0.9c-0.8,0.2-1.5,0.3-2.2,0.3
			c-0.5,0-0.9,0-1.4-0.1c-0.5-0.1-1-0.2-1.4-0.4c-0.4-0.2-0.8-0.4-1.2-0.7c-0.4-0.3-0.6-0.6-0.8-1.1l-2.3,2.3h-0.3v-5.9h3
			c0,0.9,0.3,1.6,0.8,2.1c0.6,0.5,1.3,0.7,2.3,0.7c0.2,0,0.5,0,0.9-0.1c0.3-0.1,0.6-0.1,0.9-0.3c0.3-0.1,0.6-0.3,0.8-0.5
			s0.3-0.4,0.3-0.7c0-0.5-0.2-0.8-0.7-1.1c-0.4-0.2-1-0.5-1.7-0.7c-0.7-0.2-1.4-0.4-2.1-0.6c-0.8-0.2-1.5-0.5-2.1-0.9
			c-0.7-0.4-1.2-0.9-1.7-1.5c-0.4-0.6-0.7-1.5-0.7-2.5c0-0.8,0.2-1.5,0.5-2.1c0.4-0.6,0.8-1.1,1.4-1.5c0.6-0.4,1.2-0.7,2-0.9
			c0.7-0.2,1.5-0.3,2.2-0.3c0.4,0,0.9,0,1.3,0.1c0.4,0.1,0.9,0.2,1.3,0.3c0.4,0.1,0.8,0.3,1.2,0.5c0.4,0.2,0.7,0.5,1,0.8l2.3-1.9
			h0.3v5.6h-3c0-0.8-0.3-1.4-0.8-1.9c-0.6-0.4-1.3-0.6-2.1-0.6c-0.2,0-0.5,0-0.8,0.1c-0.3,0-0.6,0.1-0.9,0.2
			c-0.3,0.1-0.5,0.3-0.7,0.5s-0.3,0.4-0.3,0.7c0,0.5,0.2,0.8,0.7,1c0.4,0.2,1,0.4,1.7,0.6c0.7,0.2,1.4,0.4,2.2,0.5
			c0.8,0.2,1.5,0.5,2.2,0.9c0.7,0.4,1.2,0.9,1.7,1.6c0.4,0.7,0.7,1.5,0.7,2.6C300.6,108.6,300.4,109.3,300.1,109.9z"/>
	</g>
	<g>
		<path class="st2" d="M177.1,139.2c-0.7,0.4-1.6,0.6-2.8,0.6c-1.6,0-2.8-0.7-3.8-2c-0.9-1.4-1.4-3.1-1.4-5.4c0-2.5,0.4-4.4,1.3-5.6
			c0.9-1.2,2.3-1.8,4.1-1.8c0.9,0,1.7,0.2,2.3,0.6c0.7,0.4,1.2,1,1.5,1.8V123l-1.5-2.3v-0.5h6.2v16.4l1.4,2.3v0.5h-5.7v-2.3
			C178.4,138.1,177.9,138.8,177.1,139.2z M178.1,129.2c-0.4-0.8-1-1.2-1.9-1.2c-0.8,0-1.4,0.4-1.7,1.1c-0.3,0.7-0.5,1.8-0.5,3.3
			c0,1.5,0.1,2.6,0.4,3.3c0.3,0.8,0.9,1.1,1.8,1.1c0.8,0,1.4-0.4,1.8-1.2c0.4-0.8,0.6-1.9,0.6-3.4C178.7,131,178.5,130,178.1,129.2z
			"/>
		<path class="st2" d="M200.4,137.6c-0.4,0.5-0.9,1-1.4,1.3c-0.6,0.3-1.2,0.6-1.9,0.7c-0.7,0.1-1.4,0.2-2.1,0.2
			c-2.4,0-4.1-0.6-5.3-1.9c-1.2-1.2-1.7-3-1.7-5.4c0-1,0.2-2,0.5-2.9c0.3-0.9,0.8-1.6,1.3-2.3c0.6-0.6,1.3-1.1,2.2-1.5
			c0.8-0.3,1.8-0.5,2.9-0.5c1.1,0,2.1,0.2,2.9,0.5c0.8,0.3,1.5,0.8,2.1,1.4c0.5,0.6,1,1.4,1.2,2.2c0.3,0.9,0.4,1.8,0.4,2.9
			c0,0.2,0,0.4,0,0.6c0,0.2,0,0.4,0,0.6h-8.8c0,0.4,0.2,0.8,0.4,1.1c0.2,0.4,0.5,0.7,0.8,1c0.3,0.3,0.7,0.5,1.1,0.7
			c0.4,0.2,0.9,0.4,1.4,0.5c0.4,0.1,0.9,0.1,1.4,0.1s1-0.1,1.4-0.3c0.4-0.1,0.8-0.3,1.1-0.5c0.3-0.2,0.4-0.5,0.4-0.7h0.6
			C201,136.4,200.8,137.1,200.4,137.6z M196.7,131.4c0-0.3,0-0.7,0-1c0-0.4-0.1-0.7-0.3-1c-0.1-0.3-0.3-0.6-0.6-0.8
			c-0.3-0.2-0.6-0.3-1-0.3c-0.5,0-0.9,0.1-1.1,0.3c-0.3,0.2-0.5,0.4-0.6,0.7c-0.2,0.3-0.3,0.6-0.3,1c-0.1,0.4-0.1,0.8-0.2,1.1H196.7
			z"/>
		<path class="st2" d="M217.5,135.2c0.6,1.1,1.5,1.6,2.7,1.6c1,0,1.8-0.3,2.2-1c0.5-0.7,0.7-1.4,0.7-2.3h4.7c-0.1,2-0.9,3.5-2.2,4.6
			c-1.4,1.1-3.1,1.6-5.2,1.6c-2.9,0-5.1-0.8-6.6-2.4c-1.5-1.6-2.3-3.9-2.3-6.9c0-2.8,0.7-6.1,2.1-7.8c1.4-1.6,3.3-2.5,5.8-2.5
			c4.2,0,5.6,1.9,5.7,2.1l1.7-1.8h0.8v6.5h-4.2c0-1.4-0.4-2.3-1-3c-0.6-0.6-1.4-1-2.3-1c-1.2,0-2.2,0.6-2.8,1.8s-0.9,3.9-0.9,6
			C216.6,132.7,216.9,134.2,217.5,135.2z"/>
		<path class="st2" d="M245.6,136.7l1.3,2.5v0.2h-5.7v-2.2c-0.3,0.9-0.8,1.5-1.6,1.9c-0.8,0.4-1.8,0.6-2.8,0.6c-1.4,0-2.4-0.3-3-1
			c-0.6-0.7-0.9-1.8-0.9-3.3v-6.9l-1.4-2.5v-0.2h6v8.8c0,0.6,0.1,1.1,0.3,1.5c0.2,0.3,0.6,0.5,1.2,0.5s1-0.2,1.3-0.7
			c0.3-0.5,0.5-1.1,0.5-1.9v-5.4l-1.3-2.5v-0.2h6.1V136.7z"/>
		<path class="st2" d="M258.5,125.9h6.5v0.2c-1,2.3-2,4.7-3,7c-1,2.3-1.9,4.7-2.9,7c-0.2,0.6-0.5,1.1-0.8,1.5
			c-0.3,0.4-0.6,0.8-0.9,1.1c-0.3,0.3-0.7,0.5-1.2,0.7c-0.5,0.1-1,0.2-1.7,0.2c-0.1,0-0.3,0-0.5,0c-0.2,0-0.4,0-0.6,0
			c-0.2,0-0.4,0-0.6-0.1c-0.2,0-0.4-0.1-0.5-0.1v-0.6c0.1,0,0.2,0.1,0.3,0.1c0.1,0,0.1,0,0.1,0c0,0,0.1,0,0.1,0c0.1,0,0.2,0,0.3,0
			c0.2,0,0.4-0.1,0.7-0.4c0.2-0.3,0.5-0.6,0.7-1c0.2-0.4,0.4-0.8,0.6-1.2c0.2-0.4,0.3-0.7,0.4-0.9c-0.9-2.2-1.8-4.5-2.7-6.7
			c-0.9-2.2-1.8-4.4-2.6-6.7v-0.2h7.1v0.2l-1.3,2.5l2.1,6l1.9-6l-1.2-2.5V125.9z"/>
		<path class="st2" d="M279.9,137.9c-1.3,1.3-2.9,2-5,2c-2.1,0-3.8-0.6-5-1.9c-1.3-1.3-1.9-3.1-1.9-5.2c0-2.2,0.6-3.9,1.9-5.2
			c1.3-1.3,2.9-2,5.1-2c2.1,0,3.8,0.6,5,1.9c1.3,1.3,1.9,3.1,1.9,5.3C281.8,134.8,281.2,136.6,279.9,137.9z M276.5,129.5
			c-0.3-0.8-0.9-1.1-1.6-1.1c-0.8,0-1.3,0.4-1.6,1.1c-0.3,0.8-0.5,1.9-0.5,3.2c0,1.3,0.2,2.4,0.5,3.1c0.3,0.8,0.9,1.1,1.6,1.1
			c0.7,0,1.3-0.4,1.6-1.1c0.3-0.8,0.5-1.9,0.5-3.2C277,131.3,276.9,130.3,276.5,129.5z"/>
	</g>
	<path class="st2" d="M228.3,70.2c3.3-4.7,7.1-7.9,8.3-8.5c0.8-0.4,3.8,3.1,2.8,5.3c-1,2.2-5.3,6.9-4.6,8s2-0.6,4.7-2.2
		c2.7-1.6,4.7-0.6,5,0.5c0.5,1.4-1.4,5.5-2,6.6c-0.6,1.1-1.8,2.7,1.1,1.3c2.9-1.3,2.9-1.3,2.9-1.3s1.5-0.7,2.5,0.9s0.5,1.3,0.9,1.6
		c0.5,0.3,3.2,0.8,4.6,0.5c1.4-0.3,3.7,0.3,2.6-1.3c-1.1-1.6-4.5-7.4-7.2-8.8s-4.7-6-6.2-8.6s-3.7-6.4-5.5-6.6
		c-1.7-0.3-7.4,7.2-8.4,8.2c-1,1-3.9,4.4-5.3,4.9C223.1,71,225,74.8,228.3,70.2z"/>
	<path class="st2" d="M185.8,85.5c0,0,2.7,1.1,6.6-1.7c4-2.8,11.8-9,15.1-13.7c3.3-4.7,8-9.6,8.7-9.2c0.7,0.4-0.4,3.2-0.7,3.8
		c-0.3,0.6-0.7,1.3,0.7,0.9c1.4-0.4,1.4-0.4,1.4-0.4s2.1-0.4,1.1,1.8c-1,2.2-8.8,10.4-8.1,11.5s5.3-1.9,8-3.5
		c2.7-1.6,4.5-2.4,5.3-1.7c0.8,0.7-1.4,5.5-2,6.6c-0.6,1.1-1.8,2.7,1.1,1.3c2.9-1.3,2.9-1.3,2.9-1.3s1.5-0.7,2.5,0.9
		s0.5,1.3,0.9,1.6c0.5,0.3,3.2,0.8,4.6,0.5c1.4-0.3,3.7,0.3,2.6-1.3c-1.1-1.6-4.5-7.4-7.2-8.8s-4.7-6-6.2-8.6
		c-1.5-2.6-3.7-6.4-5.5-6.6c-1.7-0.3-7.4,7.2-8.4,8.2c-1,1-3.9,4.4-5.3,4.9c-1.4,0.5-5.2,3.2-6.5,5.5c-1.3,2.3-4.3,5-6.5,6.4
		c-2.2,1.5-5.1,1.9-6,2.2S185.8,85.5,185.8,85.5z"/>
	<g>
		<path class="st7" d="M80.3,186.7c0,0,59.3-17.4,152.5-11.3c85.6,5.6,147.9,4.3,163.1,0c0,0-1.6,38.3-1.6,67.3s0.7,46.5,0.7,46.5
			s-103.2,2.5-167.3-1.6c-86.1-5.5-174.8,5.6-174.8,5.6l0.8-98.2L80.3,186.7z"/>
		
			<linearGradient id="SVGID_00000163789740509447207480000001024099873881581227_" gradientUnits="userSpaceOnUse" x1="52.7857" y1="233.7235" x2="395.826" y2="233.7235">
			<stop  offset="0.1704" style="stop-color:#F0D498"/>
			<stop  offset="1" style="stop-color:#E9A686"/>
		</linearGradient>
		<path style="fill:url(#SVGID_00000163789740509447207480000001024099873881581227_);" d="M193.6,175.7c12.8,0,26,0.4,39,1.3
			c37.4,2.4,72.9,3.7,102.6,3.7c28.1,0,49.3-1.2,59-3.3c-0.3,8.4-1.5,40.4-1.5,65.3c0,23.8,0.5,40,0.7,45
			c-6.9,0.2-34.9,0.7-68.2,0.7c-40.2,0-72.9-0.8-97.3-2.4c-15.9-1-33.1-1.5-51-1.5c-59.7,0-112.1,5.8-122.3,7l0.8-95.3l25.6-8
			C81.1,188.1,124.4,175.7,193.6,175.7L193.6,175.7 M193.6,174.1c-70.3,0-113.3,12.6-113.3,12.6l-26.7,8.4l-0.8,98.2
			c0,0,57-7.2,123.9-7.2c16.6,0,33.8,0.4,50.9,1.5c28.9,1.9,65.7,2.4,97.4,2.4c38.7,0,69.9-0.8,69.9-0.8s-0.7-17.5-0.7-46.5
			c0-29.1,1.6-67.3,1.6-67.3c-8.1,2.3-29.5,3.7-60.6,3.7c-27.4,0-62.4-1.1-102.5-3.7C218.9,174.5,205.9,174.1,193.6,174.1
			L193.6,174.1z M395.8,175.4L395.8,175.4L395.8,175.4z"/>
	</g>
	<g class="st9">
		<g>
			<image style="overflow:visible;" width="252" height="146" xlink:href="6C99DE15.png"  transform="matrix(1 0 0 1 106 158)">
			</image>
		</g>
		<g>
			<image style="overflow:visible;" width="144" height="90" xlink:href="6C99DE1B.png"  transform="matrix(1 0 0 1 163 189)">
			</image>
		</g>
	</g>
	<g>
		<path class="st10" d="M167,194.4h2.6h2.1c1.8,0,3.5,0.3,5,1c1.5,0.7,2.8,1.6,3.9,2.8c1.1,1.2,1.9,2.6,2.6,4.2
			c0.6,1.6,0.9,3.3,0.9,5.2c0,1.8-0.3,3.6-0.9,5.2c-0.6,1.6-1.5,3-2.6,4.2c-1.1,1.2-2.4,2.2-3.9,2.9c-1.5,0.7-3.2,1-5,1H167h-5
			c0.3-0.2,0.5-0.5,0.7-0.8c0.2-0.3,0.4-0.7,0.5-1.2c0.2-0.5,0.2-1,0.2-1.7v-19.2c0-0.7-0.1-1.2-0.2-1.7c-0.2-0.5-0.3-0.8-0.5-1.1
			c-0.2-0.3-0.5-0.6-0.7-0.9H167z M170.7,218.2c0.9,0,1.8-0.1,2.8-0.4c0.9-0.2,1.8-0.7,2.6-1.5c0.8-0.7,1.4-1.8,1.9-3.2
			s0.7-3.2,0.7-5.4s-0.2-4-0.7-5.4c-0.5-1.4-1.1-2.4-1.9-3.2s-1.6-1.3-2.6-1.5c-0.9-0.2-1.9-0.4-2.8-0.4h-2.1v20.9H170.7z"/>
		<path class="st10" d="M206.1,203.7c-0.2,0.3-0.4,0.7-0.5,1.1c-0.1,0.5-0.2,1-0.2,1.7v10.8c0,0.7,0.1,1.2,0.2,1.7
			c0.1,0.5,0.3,0.9,0.5,1.2c0.2,0.3,0.5,0.6,0.8,0.8h-4c-0.4,0-0.8-0.1-1.1-0.3c-0.3-0.2-0.5-0.4-0.7-0.6c-0.2-0.2-0.3-0.5-0.3-0.7
			c-0.1-0.2-0.1-0.4-0.1-0.5c-0.3,0.3-0.6,0.6-1,0.9c-0.4,0.3-0.8,0.6-1.2,0.8c-0.5,0.2-1,0.4-1.6,0.6c-0.6,0.1-1.2,0.2-1.9,0.2
			c-2.2,0-3.9-0.7-5-2c-1.1-1.3-1.6-3.3-1.6-5.9v-6.9c0-0.7-0.1-1.2-0.2-1.7c-0.2-0.5-0.3-0.8-0.5-1.1c-0.2-0.3-0.5-0.6-0.7-0.9h7.7
			c-0.3,0.2-0.6,0.5-0.8,0.9c-0.2,0.3-0.4,0.7-0.5,1.1c-0.1,0.5-0.2,1-0.2,1.7v7.6c0,1.7,0.3,2.9,1,3.7c0.6,0.7,1.5,1.1,2.5,1.1
			c0.8,0,1.5-0.1,2.1-0.4c0.5-0.3,1-0.7,1.3-1.1c0.3-0.4,0.5-0.8,0.7-1.2c0.1-0.4,0.2-0.8,0.2-1v-8.7c0-0.7-0.1-1.2-0.2-1.7
			c-0.2-0.5-0.3-0.8-0.5-1.1c-0.2-0.3-0.5-0.6-0.7-0.9h7.7C206.6,203.1,206.3,203.4,206.1,203.7z"/>
		<path class="st10" d="M217.5,203.4c0.7-0.6,1.6-0.9,2.8-0.9c0.3,0,0.6,0,0.8,0c0.2,0,0.4,0.1,0.6,0.1c0.2,0,0.4,0.1,0.6,0.1v4.1
			c-0.2-0.1-0.4-0.2-0.7-0.3c-0.2-0.1-0.5-0.1-0.8-0.2c-0.3-0.1-0.7-0.1-1.1-0.1c-1,0-1.8,0.3-2.3,0.8c-0.5,0.5-0.9,1.1-1.2,1.7
			c-0.2,0.6-0.4,1.2-0.4,1.7c0,0.5-0.1,0.8-0.1,0.8v6.2c0,0.7,0.1,1.2,0.2,1.7c0.1,0.5,0.3,0.9,0.5,1.2c0.2,0.3,0.5,0.6,0.8,0.8
			h-7.7c0.3-0.2,0.5-0.5,0.7-0.8c0.2-0.3,0.4-0.7,0.5-1.2c0.2-0.5,0.2-1,0.2-1.7v-10.8c0-0.7-0.1-1.2-0.2-1.7
			c-0.2-0.5-0.3-0.8-0.5-1.1c-0.2-0.3-0.5-0.6-0.7-0.9h6.2v2.6C216.2,204.6,216.8,204,217.5,203.4z"/>
		<path class="st10" d="M239.1,217.3c0,0.7,0.1,1.2,0.2,1.7c0.2,0.5,0.3,0.9,0.5,1.2c0.2,0.3,0.5,0.6,0.8,0.8h-3.2
			c-0.6,0-1.2-0.2-1.7-0.5c-0.5-0.3-0.8-0.8-1-1.3c-0.2,0.2-0.5,0.4-0.9,0.7c-0.4,0.2-0.8,0.5-1.3,0.7c-0.5,0.2-1.1,0.4-1.7,0.6
			c-0.6,0.2-1.3,0.2-2,0.2c-0.7,0-1.4-0.1-2.1-0.3c-0.7-0.2-1.2-0.5-1.8-0.9c-0.5-0.4-0.9-0.9-1.2-1.5c-0.3-0.6-0.4-1.4-0.4-2.2
			c0-1.2,0.3-2.2,1-3c0.6-0.8,1.5-1.4,2.5-1.9c1-0.5,2.2-0.8,3.5-1c1.3-0.2,2.7-0.3,4.1-0.3v-1.6c0-0.9-0.3-1.7-0.8-2.3
			c-0.5-0.6-1.3-0.9-2.4-0.9c-0.7,0-1.3,0.1-1.9,0.3c-0.6,0.2-1.2,0.5-1.7,0.7c-0.6,0.3-1.1,0.6-1.6,1v-3.5c0.5-0.2,1.1-0.4,1.8-0.6
			c0.6-0.1,1.2-0.3,2-0.4c0.7-0.1,1.5-0.2,2.4-0.2c1,0,1.9,0.2,2.7,0.5c0.8,0.4,1.6,0.9,2.2,1.5c0.6,0.6,1.1,1.4,1.5,2.2
			c0.4,0.8,0.5,1.7,0.5,2.7V217.3z M228,216.1c0,0.8,0.2,1.5,0.6,2.1c0.4,0.6,1.2,0.9,2.2,0.9c0.5,0,0.9-0.1,1.3-0.2
			c0.4-0.1,0.7-0.2,1-0.4c0.3-0.2,0.5-0.3,0.7-0.5c0.2-0.2,0.4-0.3,0.5-0.4v-5.7c-0.4,0-1,0.1-1.8,0.2c-0.7,0.1-1.4,0.3-2.1,0.6
			c-0.7,0.3-1.3,0.7-1.8,1.3C228.2,214.5,228,215.2,228,216.1z"/>
		<path class="st10" d="M254.6,218.4c0.8-0.1,1.4-0.3,1.9-0.5c0.6-0.2,1.1-0.5,1.5-0.7l-0.5,3.9h-14.2l7.9-15.7h-1.4
			c-1,0-1.9,0.1-2.6,0.2c-0.7,0.1-1.4,0.3-1.9,0.5c-0.6,0.2-1.1,0.5-1.5,0.7l0.6-3.9h13.3l-7.9,15.7h2.1
			C252.9,218.6,253.8,218.5,254.6,218.4z"/>
		<path class="st10" d="M279.3,219.1c0.1,0.5,0.3,0.9,0.5,1.2c0.2,0.3,0.5,0.6,0.8,0.8h-7.7c0.3-0.2,0.5-0.5,0.7-0.8
			c0.2-0.3,0.4-0.7,0.5-1.2c0.2-0.5,0.2-1,0.2-1.7v-7.6c0-1.7-0.3-2.8-1-3.5c-0.6-0.6-1.5-0.9-2.5-0.9c-0.6,0-1.1,0.1-1.6,0.4
			c-0.5,0.2-0.9,0.5-1.2,0.9c-0.3,0.3-0.6,0.7-0.9,1c-0.2,0.3-0.4,0.6-0.5,0.7v9.1c0,0.7,0.1,1.2,0.2,1.7c0.1,0.5,0.3,0.9,0.5,1.2
			c0.2,0.3,0.5,0.6,0.8,0.8h-7.7c0.3-0.2,0.5-0.5,0.7-0.8c0.2-0.3,0.4-0.7,0.5-1.2c0.2-0.5,0.2-1,0.2-1.7v-10c0-0.7-0.1-1.2-0.2-1.7
			c-0.2-0.5-0.3-0.8-0.5-1.1c-0.2-0.3-0.5-0.6-0.7-0.9l6.2-0.7v2.1c0.6-0.5,1.3-1,2.3-1.5c0.9-0.4,2-0.7,3.2-0.7
			c2.2,0,3.9,0.6,5.1,1.8c1.2,1.2,1.8,3.1,1.8,5.8v6.9C279.1,218,279.2,218.6,279.3,219.1z"/>
		<path class="st10" d="M292.2,202.9c1.3,0,2.6,0.2,3.7,0.6c1.1,0.4,2.1,1,2.9,1.8c0.8,0.8,1.5,1.8,2,2.9c0.5,1.2,0.7,2.5,0.7,4
			c0,1.5-0.2,2.8-0.7,4c-0.5,1.2-1.1,2.1-2,2.9c-0.8,0.8-1.8,1.4-2.9,1.8c-1.1,0.4-2.4,0.6-3.7,0.6c-1.3,0-2.6-0.2-3.7-0.6
			c-1.1-0.4-2.1-1-2.9-1.8c-0.8-0.8-1.5-1.8-2-2.9c-0.5-1.2-0.7-2.5-0.7-4c0-1.5,0.2-2.8,0.7-4c0.5-1.2,1.1-2.1,2-2.9
			c0.8-0.8,1.8-1.4,2.9-1.8C289.6,203.1,290.8,202.9,292.2,202.9z M291.8,205.3c-0.6,0-1.2,0.1-1.7,0.4c-0.5,0.2-1,0.6-1.4,1.2
			c-0.4,0.5-0.7,1.2-0.9,2.1c-0.2,0.9-0.3,2-0.2,3.2c0.1,1.3,0.3,2.3,0.6,3.2c0.3,0.9,0.7,1.6,1.2,2.1c0.5,0.5,1,0.9,1.6,1.2
			c0.6,0.2,1.2,0.4,1.8,0.4c0.6,0,1.2-0.1,1.7-0.4c0.5-0.2,1-0.6,1.4-1.2c0.4-0.5,0.7-1.2,0.9-2.1c0.2-0.9,0.3-1.9,0.2-3.2
			c-0.1-1.3-0.3-2.3-0.6-3.2c-0.3-0.9-0.7-1.6-1.2-2.1c-0.5-0.5-1-0.9-1.5-1.2C292.9,205.4,292.4,205.3,291.8,205.3z"/>
		<path class="st11" d="M151.6,251.7c0,1,0.2,1.9,0.6,2.9c0.4,1,0.9,1.9,1.6,2.8c0.6,0.9,1.4,1.8,2.2,2.6c0.8,0.8,1.7,1.6,2.5,2.3
			c2,1.7,4.3,3.3,6.9,4.8h-6.5c-0.3-0.2-0.6-0.4-1-0.7c-0.3-0.2-0.7-0.5-1.1-0.8c-0.4-0.3-0.8-0.7-1.3-1.1c-0.3,0.3-0.6,0.6-1,0.9
			c-0.4,0.3-0.9,0.6-1.4,0.9c-0.5,0.3-1.2,0.5-1.8,0.7c-0.7,0.2-1.4,0.3-2.3,0.3c-1.1,0-2-0.1-2.8-0.4c-0.8-0.3-1.5-0.7-2.1-1.2
			c-0.6-0.5-1-1.1-1.3-1.8c-0.3-0.7-0.4-1.5-0.4-2.3c0-1,0.2-1.9,0.7-2.7c0.5-0.8,1-1.5,1.6-2c0.6-0.6,1.3-1.1,2-1.4
			c0.7-0.4,1.3-0.7,1.7-0.9c-0.3-0.9-0.5-1.8-0.5-2.7c0-0.8,0.1-1.5,0.4-2.2c0.3-0.7,0.7-1.2,1.2-1.7c0.5-0.5,1.1-0.9,1.9-1.1
			c0.8-0.3,1.6-0.4,2.6-0.4c0.8,0,1.5,0.1,2.2,0.2c0.6,0.2,1.2,0.3,1.6,0.5c0.5,0.2,1,0.5,1.4,0.7v4.4c-0.4-0.7-0.8-1.3-1.3-1.9
			c-0.4-0.5-0.9-0.9-1.5-1.3c-0.6-0.4-1.3-0.6-2.1-0.6c-0.9,0-1.6,0.3-2,0.9C151.8,250,151.6,250.8,151.6,251.7z M150.1,265
			c0.9-0.1,1.7-0.3,2.3-0.8c0.6-0.4,1.1-0.9,1.4-1.3c-0.9-0.9-1.8-1.9-2.6-2.9c-0.8-1.1-1.5-2.3-2.1-3.5c-0.3,0.2-0.6,0.4-1,0.6
			c-0.4,0.3-0.7,0.6-1,0.9c-0.3,0.4-0.6,0.8-0.8,1.3c-0.2,0.5-0.3,1.1-0.3,1.7c0,0.6,0.1,1.2,0.3,1.7c0.2,0.5,0.5,0.9,0.9,1.3
			c0.4,0.3,0.8,0.6,1.3,0.8C149,265,149.5,265.1,150.1,265z"/>
		<path class="st11" d="M189.2,266.4c0.1-0.2,0.2-0.5,0.3-0.9c0.1-0.4,0.1-0.8,0.1-1.3l-1-11.7l-6,14.5c-0.7,0-1.3-0.2-1.8-0.5
			c-0.5-0.4-0.9-0.8-1.2-1.4l-5.2-12.7l-1,11.8c0,0.5,0,1,0.1,1.3c0.1,0.4,0.2,0.7,0.3,0.9c0.2,0.3,0.3,0.5,0.5,0.6h-4.9
			c0.2-0.2,0.4-0.4,0.7-0.6c0.2-0.2,0.3-0.5,0.5-0.9c0.2-0.4,0.2-0.8,0.3-1.3l1.3-14.7c0-0.5,0-0.9-0.1-1.3
			c-0.1-0.4-0.2-0.6-0.3-0.9c-0.2-0.3-0.3-0.5-0.5-0.7h4.8l6.2,15.3l5.2-12.6c0.2-0.4,0.3-0.9,0.4-1.3c0.1-0.4,0.1-0.9,0-1.3h5.3
			c-0.2,0.2-0.4,0.4-0.5,0.7c-0.1,0.2-0.2,0.5-0.3,0.9c-0.1,0.4-0.1,0.8,0,1.3l1.3,14.7c0,0.5,0.1,1,0.3,1.3
			c0.2,0.4,0.3,0.7,0.5,0.9c0.2,0.3,0.4,0.5,0.6,0.6h-6.2C188.9,266.9,189,266.7,189.2,266.4z"/>
		<path class="st11" d="M200.4,264.2c0,0.5,0.1,1,0.2,1.3c0.1,0.4,0.2,0.7,0.4,0.9c0.2,0.3,0.4,0.5,0.6,0.6h-5.9
			c0.2-0.2,0.4-0.4,0.6-0.6c0.2-0.2,0.3-0.5,0.4-0.9c0.1-0.4,0.2-0.8,0.2-1.3v-7.7c0-0.5-0.1-0.9-0.2-1.3c-0.1-0.4-0.3-0.6-0.4-0.9
			c-0.2-0.3-0.4-0.5-0.6-0.7l4.7-0.6V264.2z M198.3,251.2c-0.6,0-1.1-0.2-1.5-0.6c-0.4-0.4-0.6-0.9-0.6-1.5c0-0.6,0.2-1.1,0.6-1.5
			c0.4-0.4,0.9-0.6,1.5-0.6c0.6,0,1.1,0.2,1.5,0.6c0.4,0.4,0.6,0.9,0.6,1.5c0,0.6-0.2,1.1-0.6,1.5
			C199.4,251,198.9,251.2,198.3,251.2z"/>
		<path class="st11" d="M214.9,265.5c0.3,0.4,0.6,0.7,0.9,0.9c0.3,0.3,0.6,0.5,1,0.6c-0.3,0.1-0.6,0.1-0.9,0.2c-0.3,0-0.6,0.1-1,0.1
			c-0.4,0-0.7,0.1-1.1,0.1c-0.8,0-1.4-0.1-1.8-0.4c-0.4-0.2-0.8-0.6-1-1l-2.1-3.6l-1.2,1.8c-0.4,0.5-0.6,1-0.7,1.3
			c-0.1,0.4-0.2,0.7-0.3,0.9c0,0.3,0,0.5,0.1,0.6h-4.6c0.3-0.2,0.7-0.4,1-0.6c0.3-0.2,0.6-0.5,1-0.9c0.4-0.4,0.7-0.8,1.1-1.3
			l2.5-3.6l-2.7-4.6c-0.3-0.5-0.6-0.9-0.9-1.3c-0.3-0.4-0.6-0.6-0.9-0.9c-0.3-0.3-0.6-0.5-1-0.7h6.3c-0.1,0.2-0.1,0.4-0.1,0.7
			c0,0.2,0,0.5,0.1,0.9c0.1,0.4,0.3,0.8,0.6,1.3l0.9,1.5l1-1.5c0.4-0.5,0.6-0.9,0.7-1.3c0.1-0.4,0.2-0.6,0.2-0.9
			c0-0.3,0-0.5-0.1-0.7h4.7c-0.3,0.2-0.7,0.4-1,0.7c-0.3,0.2-0.6,0.5-1,0.9c-0.4,0.4-0.7,0.8-1.1,1.3l-2.3,3.3l2.8,4.9
			C214.2,264.7,214.6,265.2,214.9,265.5z"/>
		<path class="st11" d="M226.2,255.8c0,0.4,0.2,0.8,0.6,1.1c0.4,0.3,0.9,0.6,1.4,0.9s1.2,0.6,1.8,0.9c0.7,0.3,1.3,0.7,1.8,1.1
			c0.6,0.4,1,0.9,1.4,1.4c0.4,0.5,0.6,1.2,0.6,1.9c0,0.7-0.2,1.3-0.5,1.8c-0.3,0.5-0.7,0.9-1.2,1.3c-0.5,0.3-1.1,0.6-1.9,0.8
			c-0.7,0.2-1.5,0.3-2.3,0.3c-0.9,0-1.6-0.1-2.2-0.2c-0.6-0.1-1.1-0.3-1.6-0.4c-0.5-0.2-0.9-0.4-1.3-0.6l-0.3-3.3
			c0.4,0.5,0.9,0.9,1.4,1.3c0.4,0.3,1,0.6,1.6,0.9c0.6,0.3,1.3,0.4,2,0.4c0.8,0,1.5-0.1,2-0.4c0.5-0.3,0.7-0.7,0.7-1.3
			c0-0.5-0.2-0.9-0.6-1.3c-0.4-0.4-0.8-0.7-1.4-1c-0.6-0.3-1.2-0.6-1.8-0.9c-0.7-0.3-1.3-0.7-1.8-1c-0.6-0.4-1-0.8-1.4-1.3
			c-0.4-0.5-0.6-1.1-0.6-1.8c0-0.5,0.1-0.9,0.3-1.3c0.2-0.4,0.5-0.8,0.9-1.1c0.4-0.3,1-0.6,1.6-0.8c0.6-0.2,1.4-0.3,2.3-0.3
			c0.6,0,1.2,0.1,1.8,0.2c0.6,0.1,1.1,0.2,1.5,0.4c0.5,0.2,1,0.4,1.4,0.6v2.6c-0.4-0.3-0.8-0.7-1.3-0.9c-0.4-0.2-0.9-0.5-1.4-0.7
			c-0.6-0.2-1.2-0.3-1.8-0.3c-0.7,0-1.2,0.1-1.5,0.4C226.4,255.2,226.2,255.5,226.2,255.8z"/>
		<path class="st11" d="M242.3,253.2c2.1,0,3.8,0.6,4.9,1.9c1.2,1.3,1.7,3.1,1.7,5.4h-10.2c0,0.9,0.2,1.6,0.4,2.2
			c0.2,0.6,0.6,1.2,1,1.6c0.4,0.4,0.9,0.7,1.4,0.9c0.5,0.2,1.1,0.3,1.8,0.3c0.9,0,1.7-0.1,2.4-0.3c0.7-0.2,1.3-0.5,1.7-0.7
			c0.5-0.3,1-0.7,1.4-1.1l-0.4,3c-0.4,0.2-0.9,0.4-1.5,0.5c-0.5,0.1-1.1,0.3-1.8,0.4c-0.7,0.1-1.5,0.2-2.4,0.2
			c-1.1,0-2.2-0.2-3.1-0.5c-0.9-0.3-1.8-0.8-2.4-1.4c-0.7-0.6-1.2-1.4-1.6-2.3c-0.4-0.9-0.6-1.9-0.6-3.1c0-1.2,0.2-2.2,0.6-3.1
			c0.4-0.9,0.9-1.6,1.6-2.2c0.7-0.6,1.4-1,2.3-1.3S241.3,253.2,242.3,253.2z M242.2,254.7c-0.9,0-1.7,0.3-2.3,0.9
			c-0.6,0.6-1,1.6-1.1,3h6.6c0-0.5-0.1-1-0.2-1.5c-0.1-0.5-0.3-0.9-0.5-1.2c-0.2-0.4-0.6-0.6-1-0.8
			C243.3,254.8,242.8,254.7,242.2,254.7z"/>
		<path class="st11" d="M271.9,265.5c0.1,0.4,0.3,0.7,0.4,0.9c0.2,0.3,0.4,0.5,0.6,0.6h-5.9c0.2-0.2,0.4-0.4,0.6-0.6
			c0.2-0.2,0.3-0.5,0.4-0.9c0.1-0.4,0.2-0.8,0.2-1.3v-5.9c0-1.2-0.2-2-0.5-2.6c-0.3-0.5-0.8-0.8-1.5-0.8c-0.6,0-1.1,0.2-1.4,0.5
			c-0.4,0.4-0.6,0.8-0.9,1.2c-0.2,0.5-0.4,1.1-0.5,1.7v5.8c0,0.5,0.1,1,0.2,1.3c0.1,0.4,0.2,0.7,0.4,0.9c0.2,0.3,0.4,0.5,0.6,0.6
			h-5.9c0.2-0.2,0.4-0.4,0.6-0.6c0.2-0.2,0.3-0.5,0.4-0.9c0.1-0.4,0.2-0.8,0.2-1.3v-5.9c0-2.2-0.7-3.4-2-3.4c-0.6,0-1,0.1-1.4,0.4
			c-0.4,0.3-0.7,0.6-0.9,1c-0.2,0.4-0.4,0.9-0.5,1.4v6.4c0,0.5,0.1,1,0.2,1.3c0.1,0.4,0.2,0.7,0.4,0.9c0.2,0.3,0.4,0.5,0.6,0.6h-5.9
			c0.2-0.2,0.4-0.4,0.6-0.6c0.2-0.2,0.3-0.5,0.4-0.9c0.1-0.4,0.2-0.8,0.2-1.3v-7.7c0-0.5-0.1-1-0.2-1.3c-0.1-0.4-0.3-0.7-0.4-0.9
			c-0.2-0.3-0.4-0.5-0.6-0.7l4.7-0.6v1.9c0.2-0.2,0.4-0.5,0.7-0.7c0.3-0.2,0.5-0.4,0.9-0.6c0.3-0.2,0.7-0.3,1.1-0.4
			c0.4-0.1,0.8-0.2,1.3-0.2c1,0,1.8,0.2,2.5,0.6c0.7,0.4,1.2,1,1.5,1.9c0.2-0.2,0.4-0.5,0.7-0.8c0.3-0.3,0.6-0.6,0.9-0.8
			c0.4-0.2,0.8-0.5,1.2-0.6c0.5-0.2,1-0.3,1.5-0.3c1.5,0,2.6,0.5,3.4,1.4c0.8,0.9,1.1,2.4,1.1,4.4v5.3
			C271.7,264.7,271.7,265.2,271.9,265.5z"/>
		<path class="st11" d="M278.8,264.2c0,0.5,0.1,1,0.2,1.3c0.1,0.4,0.2,0.7,0.4,0.9c0.2,0.3,0.4,0.5,0.6,0.6h-5.9
			c0.2-0.2,0.4-0.4,0.6-0.6c0.2-0.2,0.3-0.5,0.4-0.9c0.1-0.4,0.2-0.8,0.2-1.3v-7.7c0-0.5-0.1-0.9-0.2-1.3c-0.1-0.4-0.3-0.6-0.4-0.9
			c-0.2-0.3-0.4-0.5-0.6-0.7l4.7-0.6V264.2z M276.6,251.2c-0.6,0-1.1-0.2-1.5-0.6c-0.4-0.4-0.6-0.9-0.6-1.5c0-0.6,0.2-1.1,0.6-1.5
			c0.4-0.4,0.9-0.6,1.5-0.6c0.6,0,1.1,0.2,1.5,0.6c0.4,0.4,0.6,0.9,0.6,1.5c0,0.6-0.2,1.1-0.6,1.5
			C277.8,251,277.2,251.2,276.6,251.2z"/>
		<path class="st11" d="M286.1,265.5c0.1,0.4,0.3,0.7,0.4,0.9c0.2,0.3,0.4,0.5,0.6,0.6h-5.9c0.2-0.2,0.4-0.4,0.6-0.6
			c0.2-0.2,0.3-0.5,0.4-0.9c0.1-0.4,0.2-0.8,0.2-1.3v-14.7c0-0.5-0.1-1-0.2-1.3c-0.1-0.4-0.3-0.7-0.4-0.9c-0.2-0.3-0.4-0.5-0.6-0.7
			l4.7-0.6v18.1C285.9,264.7,286,265.2,286.1,265.5z"/>
		<path class="st11" d="M293.3,265.5c0.1,0.4,0.3,0.7,0.4,0.9c0.2,0.3,0.4,0.5,0.6,0.6h-5.9c0.2-0.2,0.4-0.4,0.6-0.6
			c0.2-0.2,0.3-0.5,0.4-0.9c0.1-0.4,0.2-0.8,0.2-1.3v-14.7c0-0.5-0.1-1-0.2-1.3c-0.1-0.4-0.3-0.7-0.4-0.9c-0.2-0.3-0.4-0.5-0.6-0.7
			l4.7-0.6v18.1C293.1,264.7,293.1,265.2,293.3,265.5z"/>
		<path class="st11" d="M307.5,264.2c0,0.5,0.1,1,0.2,1.3c0.1,0.4,0.3,0.7,0.4,0.9c0.2,0.3,0.4,0.5,0.6,0.6h-2.5
			c-0.5,0-0.9-0.1-1.3-0.4c-0.4-0.3-0.6-0.6-0.8-1c-0.2,0.2-0.4,0.3-0.7,0.5c-0.3,0.2-0.6,0.4-1,0.6c-0.4,0.2-0.8,0.3-1.3,0.5
			c-0.5,0.1-1,0.2-1.5,0.2c-0.6,0-1.1-0.1-1.6-0.2c-0.5-0.1-1-0.4-1.3-0.7c-0.4-0.3-0.7-0.7-0.9-1.2c-0.2-0.5-0.3-1-0.3-1.7
			c0-0.9,0.2-1.7,0.7-2.3c0.5-0.6,1.1-1.1,1.9-1.4c0.8-0.4,1.7-0.6,2.7-0.7c1-0.1,2-0.2,3.1-0.2v-1.2c0-0.7-0.2-1.3-0.6-1.7
			c-0.4-0.4-1-0.7-1.9-0.7c-0.5,0-1,0.1-1.5,0.2c-0.5,0.2-0.9,0.3-1.3,0.6c-0.4,0.2-0.8,0.5-1.2,0.8v-2.7c0.4-0.2,0.9-0.3,1.4-0.5
			c0.4-0.1,0.9-0.2,1.5-0.3c0.6-0.1,1.2-0.2,1.8-0.2c0.7,0,1.4,0.1,2.1,0.4c0.6,0.3,1.2,0.7,1.7,1.1c0.5,0.5,0.9,1,1.1,1.7
			c0.3,0.6,0.4,1.3,0.4,2.1V264.2z M299,263.3c0,0.6,0.2,1.1,0.5,1.6c0.3,0.4,0.9,0.7,1.7,0.7c0.4,0,0.7,0,1-0.1
			c0.3-0.1,0.6-0.2,0.8-0.3c0.2-0.1,0.4-0.2,0.6-0.4c0.2-0.1,0.3-0.2,0.4-0.3v-4.4c-0.3,0-0.8,0.1-1.3,0.2c-0.6,0.1-1.1,0.2-1.6,0.5
			c-0.5,0.2-1,0.6-1.4,1C299.2,262.1,299,262.6,299,263.3z"/>
		<path class="st11" d="M313.5,255.8c0,0.4,0.2,0.8,0.6,1.1c0.4,0.3,0.9,0.6,1.4,0.9c0.6,0.3,1.2,0.6,1.8,0.9
			c0.7,0.3,1.3,0.7,1.8,1.1c0.6,0.4,1,0.9,1.4,1.4c0.4,0.5,0.6,1.2,0.6,1.9c0,0.7-0.2,1.3-0.5,1.8c-0.3,0.5-0.7,0.9-1.2,1.3
			c-0.5,0.3-1.1,0.6-1.9,0.8c-0.7,0.2-1.5,0.3-2.3,0.3c-0.9,0-1.6-0.1-2.2-0.2c-0.6-0.1-1.1-0.3-1.6-0.4c-0.5-0.2-0.9-0.4-1.3-0.6
			l-0.3-3.3c0.4,0.5,0.9,0.9,1.4,1.3c0.4,0.3,1,0.6,1.6,0.9c0.6,0.3,1.3,0.4,2,0.4c0.8,0,1.5-0.1,2-0.4s0.7-0.7,0.7-1.3
			c0-0.5-0.2-0.9-0.6-1.3c-0.4-0.4-0.8-0.7-1.4-1c-0.6-0.3-1.2-0.6-1.8-0.9c-0.7-0.3-1.3-0.7-1.8-1c-0.6-0.4-1-0.8-1.4-1.3
			c-0.4-0.5-0.6-1.1-0.6-1.8c0-0.5,0.1-0.9,0.3-1.3c0.2-0.4,0.5-0.8,0.9-1.1c0.4-0.3,1-0.6,1.6-0.8c0.6-0.2,1.4-0.3,2.3-0.3
			c0.6,0,1.2,0.1,1.8,0.2c0.6,0.1,1.1,0.2,1.5,0.4c0.5,0.2,1,0.4,1.4,0.6v2.6c-0.4-0.3-0.8-0.7-1.3-0.9c-0.4-0.2-0.9-0.5-1.4-0.7
			c-0.6-0.2-1.2-0.3-1.8-0.3c-0.7,0-1.2,0.1-1.5,0.4C313.7,255.2,313.5,255.5,313.5,255.8z"/>
	</g>
	<g>
		
			<ellipse transform="matrix(0.9633 -0.2684 0.2684 0.9633 -43.3369 28.9298)" class="st12" cx="84.1" cy="172.9" rx="58.1" ry="32.5"/>
		<g>
			<path class="st13" d="M146.9,155.3c5.7,20.3-16.3,44.1-52.5,54.2c-83.6,22.2-103.5-49.2-20.5-73.4
				C110.1,126,141.2,135.1,146.9,155.3L146.9,155.3z"/>
		</g>
		<g>
			<path class="st7" d="M61.8,174.6c0-0.1,0.2-0.1,0.4,0c0.2,0.1,0.5,0.2,0.7,0.3c0.3,0.1,0.5,0.3,0.7,0.5c0.2,0.2,0.3,0.3,0.3,0.4
				c-0.1,1.3-0.2,2.7-0.3,4.1c-0.1,1.4-0.3,2.8-0.5,4.2c-0.2,1.4-0.5,2.7-0.9,3.9c-0.4,1.3-0.9,2.4-1.6,3.5c-0.7,1.1-1.6,2-2.6,2.8
				c-1,0.8-2.3,1.4-3.8,1.8c-1.1,0.3-2.1,0.4-3,0.3c-0.9-0.1-1.6-0.3-2.2-0.7c-0.6-0.4-1.1-0.8-1.4-1.4c-0.3-0.6-0.5-1.2-0.6-1.9
				c-0.1-0.7,0-1.4,0.3-2.2c0.2-0.8,0.6-1.5,1.2-2.2c-0.5-0.6-0.8-1.2-1-1.9c-0.4-1.1-0.6-2.3-0.6-3.7c0-1.3,0.2-2.7,0.5-4.1
				c0.3-1.4,0.8-2.7,1.5-4.1c0.7-1.3,1.5-2.6,2.5-3.7c1-1.1,2.2-2.1,3.6-3c1.4-0.9,2.9-1.5,4.5-1.9c0.9-0.2,1.6-0.2,2.2-0.1
				c0.6,0.1,1.1,0.4,1.4,0.8c0.4,0.4,0.6,0.8,0.8,1.4c0.2,0.5,0.2,1.1,0.2,1.7c0,0.6-0.1,1.1-0.2,1.7c-0.2,0.6-0.4,1.1-0.6,1.5
				c0,0.1-0.2,0.2-0.5,0.3c-0.3,0.1-0.6,0.2-0.9,0.3c-0.3,0.1-0.6,0.2-0.9,0.2c-0.3,0-0.4,0-0.4-0.1c0.2-0.2,0.4-0.6,0.6-0.9
				c0.2-0.4,0.4-0.8,0.6-1.3c0.2-0.5,0.3-1,0.4-1.5c0.1-0.5,0-1.1-0.2-1.6c0-0.2-0.1-0.4-0.2-0.5c-0.1-0.2-0.3-0.3-0.4-0.5
				c-0.2-0.1-0.4-0.2-0.7-0.3c-0.3-0.1-0.6,0-0.9,0c-1.2,0.3-2.3,0.8-3.4,1.5s-2,1.5-2.9,2.5c-0.9,1-1.6,2.1-2.2,3.3
				c-0.6,1.2-1.1,2.5-1.5,3.7c-0.4,1.3-0.6,2.6-0.6,3.9c-0.1,1.3,0.1,2.5,0.4,3.7c0.1,0.4,0.3,0.8,0.5,1.1c0.7-0.5,1.4-1,2.3-1.5
				c0.9-0.4,1.9-0.8,3.1-1c0.1,0,0.2,0,0.5,0.1c0.2,0.1,0.4,0.2,0.6,0.3c0.2,0.1,0.4,0.2,0.5,0.3c0.1,0.1,0.1,0.2,0,0.2
				c-1.4,0.2-2.7,0.4-3.7,0.9c-1,0.4-1.9,0.9-2.6,1.5c0.5,0.5,1,0.9,1.6,1.1c0.6,0.2,1.3,0.3,2.1,0.1c0.7-0.2,1.4-0.5,2.1-0.9
				c0.7-0.4,1.4-0.9,2-1.5c0.6-0.6,1.1-1.2,1.6-1.9c0.5-0.7,0.8-1.3,1-1.9c0-0.3,0.1-0.5,0.1-0.8c0-0.3,0.1-0.5,0.1-0.8
				c0.1-0.8,0.2-1.5,0.3-2.2c0.1-0.7,0.1-1.3,0.2-1.9c0-0.5,0.1-1,0.1-1.3C61.9,175,61.9,174.7,61.8,174.6z M54.8,189.4
				c-1.2,0.3-2.3,0.4-3.2,0.3c-0.9-0.1-1.7-0.4-2.3-0.9c-0.4,0.6-0.7,1.1-0.8,1.7c-0.2,0.6-0.2,1.2-0.1,1.7c0.1,0.5,0.2,1,0.5,1.5
				c0.3,0.4,0.6,0.8,1.1,1.1c0.5,0.3,1,0.4,1.7,0.5c0.6,0.1,1.4,0,2.1-0.2c1.1-0.3,2-0.8,2.8-1.4c0.8-0.6,1.4-1.4,2-2.3
				c0.5-0.9,1-1.9,1.3-3c0.4-1.1,0.6-2.3,0.9-3.5c-0.4,0.5-0.8,0.9-1.2,1.4c-0.4,0.5-0.9,0.9-1.4,1.3c-0.5,0.4-1,0.8-1.6,1.1
				C55.9,189,55.4,189.2,54.8,189.4z"/>
			<path class="st7" d="M69.6,172.4c0.3,0,0.6,0,0.9,0s0.5,0.2,0.7,0.3c0.2,0.1,0.3,0.3,0.5,0.5c0.1,0.2,0.2,0.4,0.3,0.6
				c0.3,0.2,0.6,0.6,0.8,1c0.3,0.7,0.4,1.5,0.4,2.4c0,0.9-0.2,1.8-0.5,2.6c-0.3,0.8-0.7,1.6-1.3,2.2c-0.5,0.6-1.2,1.1-1.9,1.2
				c-0.8,0.2-1.5,0.1-2.2-0.1c-0.7-0.3-1.3-0.9-1.8-1.8c-0.3-0.5-0.4-1-0.5-1.6c-0.1-0.6,0-1.2,0.1-1.9c0.1-0.6,0.3-1.3,0.6-1.9
				c0.3-0.6,0.6-1.2,1-1.7c0.4-0.5,0.8-0.9,1.4-1.3C68.4,172.7,69,172.5,69.6,172.4z M70.4,176.5c-0.1,0-0.1,0-0.2-0.1
				c0-0.1-0.1-0.2-0.1-0.3c0-0.1-0.1-0.3-0.1-0.4c0-0.1-0.1-0.3-0.1-0.4c0-0.1,0-0.3,0.1-0.4c0.1-0.1,0.1-0.3,0.2-0.4
				c0.1-0.1,0.2-0.2,0.3-0.3c0.1-0.1,0.2-0.2,0.2-0.2c0.1-0.1,0.3-0.2,0.4-0.3c-0.1-0.2-0.2-0.3-0.4-0.4c-0.2-0.1-0.5-0.1-0.8,0.1
				c-0.3,0.1-0.6,0.3-1,0.7c-0.3,0.3-0.6,0.7-0.9,1.1c-0.3,0.5-0.5,1-0.6,1.5c-0.2,0.6-0.3,1.1-0.3,1.7c-0.1,0.5,0,1.1,0,1.6
				c0.1,0.5,0.2,0.9,0.4,1.3c0.2,0.4,0.5,0.6,0.8,0.8c0.3,0.2,0.7,0.2,1.2,0.1c0.5-0.1,1-0.4,1.4-1c0.4-0.5,0.7-1.1,1-1.8
				c0.2-0.7,0.4-1.4,0.5-2.2c0.1-0.7,0-1.4-0.2-2c-0.1-0.3-0.2-0.4-0.4-0.4c-0.2,0-0.3,0.1-0.5,0.2c-0.2,0.1-0.3,0.3-0.4,0.5
				c-0.1,0.2-0.2,0.4-0.3,0.6C70.4,176.2,70.3,176.4,70.4,176.5z"/>
			<path class="st7" d="M80.3,169.5c0.1-0.1,0.3-0.1,0.6-0.1c0.3,0,0.5,0.1,0.8,0.2c0.2,0.1,0.5,0.3,0.6,0.5
				c0.2,0.2,0.3,0.4,0.3,0.6c0,0.2-0.1,0.5-0.1,1c-0.1,0.5-0.2,1-0.3,1.6c-0.1,0.6-0.2,1.2-0.2,1.8c-0.1,0.6-0.1,1.2-0.1,1.7
				c0,0.5,0,0.9,0.1,1.2s0.2,0.4,0.5,0.4l0.3-0.1c0.4-0.3,0.8-0.6,1.1-1.1c0.3-0.5,0.5-1,0.8-1.5c0.2-0.5,0.4-1.1,0.6-1.6
				c0.2-0.6,0.3-1.1,0.4-1.5c0-0.1,0.1-0.1,0.2-0.2c0.1,0,0.2,0,0.2,0c0.1,0,0.1,0.1,0.2,0.1c0,0.1,0.1,0.1,0,0.3
				c-0.2,0.5-0.3,1-0.4,1.5c-0.1,0.5-0.3,1-0.5,1.5c-0.2,0.5-0.4,0.9-0.6,1.4c-0.2,0.5-0.4,0.9-0.7,1.3c-0.1,0.1-0.2,0.2-0.3,0.4
				c-0.1,0.1-0.3,0.3-0.4,0.4c-0.2,0.1-0.3,0.3-0.5,0.4c-0.2,0.1-0.4,0.2-0.6,0.3c-0.3,0.1-0.6,0.1-0.8,0c-0.2-0.1-0.4-0.2-0.6-0.5
				c-0.2-0.2-0.3-0.5-0.4-0.8c-0.1-0.3-0.2-0.6-0.2-1c0-0.3,0-0.5,0-0.8c-0.2,0.6-0.4,1.1-0.6,1.6c-0.2,0.5-0.5,1-0.8,1.5
				c-0.1,0.1-0.2,0.2-0.3,0.4c-0.1,0.1-0.3,0.3-0.4,0.4c-0.2,0.1-0.3,0.3-0.5,0.4c-0.2,0.1-0.4,0.2-0.6,0.3c-0.3,0.1-0.5,0.1-0.8,0
				c-0.2-0.1-0.4-0.2-0.6-0.5c-0.2-0.2-0.3-0.5-0.4-0.8c-0.1-0.3-0.2-0.6-0.2-1c0-0.5,0-1.1,0-1.8c0-0.7,0.1-1.5,0.1-2.2
				c0.1-0.8,0.1-1.5,0.2-2.2c0-0.7,0.1-1.4,0.1-1.9c0.1-0.1,0.3-0.1,0.5-0.1c0.2,0,0.5,0.1,0.7,0.2s0.5,0.3,0.6,0.5
				c0.2,0.2,0.3,0.4,0.3,0.6c0,0.2-0.1,0.5-0.1,1c-0.1,0.5-0.2,1-0.3,1.6c-0.1,0.6-0.2,1.2-0.2,1.8c-0.1,0.6-0.1,1.2-0.1,1.7
				c0,0.5,0,0.9,0.1,1.2c0.1,0.3,0.2,0.4,0.5,0.4l0.2-0.1c0.4-0.3,0.7-0.6,1-1c0.3-0.4,0.5-0.9,0.7-1.4c0.2-0.5,0.4-1,0.6-1.6
				c0.2-0.5,0.3-1,0.4-1.5c0.1-0.9,0.1-1.7,0.2-2.6C80.2,170.8,80.3,170.1,80.3,169.5z"/>
			<path class="st7" d="M93.1,173.1c-0.2,0.5-0.4,1-0.6,1.5c-0.2,0.5-0.5,1-0.9,1.4c-0.3,0.4-0.7,0.8-1.1,1.2
				c-0.4,0.3-0.9,0.6-1.4,0.7c-0.5,0.1-0.9,0-1.3-0.2c-0.3-0.3-0.6-0.6-0.7-1.1c-0.1-0.4-0.1-0.8-0.1-1.2c0-0.4,0.1-0.8,0.2-1.2
				c0.1-0.4,0.2-0.8,0.4-1.2c0.2-0.4,0.3-0.8,0.5-1.3c0.1-0.3,0.2-0.6,0.3-0.9c0.1-0.3,0.2-0.5,0.3-0.7c0.1-0.2,0.1-0.4,0.1-0.5
				c0-0.1,0-0.2,0-0.1c-0.2,0.1-0.4,0.2-0.5,0.2c-0.1,0.1-0.3,0.1-0.4,0.2s-0.2,0.1-0.4,0.2c-0.1,0-0.3,0.1-0.5,0.2
				c-0.1,0-0.1,0-0.2,0.1c-0.1,0-0.1,0-0.2,0c-0.2,0.5-0.4,1-0.5,1.5c-0.2,0.5-0.3,1-0.5,1.5c0,0.1-0.1,0.1-0.1,0.2
				c-0.1,0-0.1,0-0.2,0c-0.1,0-0.1-0.1-0.2-0.1c0-0.1-0.1-0.2,0-0.3c0.1-0.5,0.3-1,0.4-1.4c0.1-0.5,0.3-0.9,0.4-1.4
				c-0.3-0.1-0.5-0.4-0.5-0.7c0-0.4,0-0.8,0.1-1.2c0.1-0.4,0.2-0.9,0.3-1.3c0.1-0.4,0.2-0.7,0.2-1c0.2,0,0.4,0.1,0.6,0.1
				c0.2,0.1,0.4,0.1,0.5,0.2c0.1,0.1,0.3,0.3,0.3,0.5c0.1,0.2,0.1,0.5,0.1,0.8l-0.5,1.5c0,0.1,0,0.1,0.2,0c0.1-0.1,0.3-0.2,0.6-0.3
				c0.2-0.2,0.5-0.4,0.8-0.6c0.3-0.2,0.6-0.4,0.8-0.7c0.3-0.2,0.5-0.4,0.7-0.6c0.2-0.2,0.3-0.3,0.4-0.4c0,0,0.1,0,0.2,0
				c0.1,0,0.2,0.1,0.3,0.1c0.1,0,0.2,0.1,0.3,0.1c0.1,0,0.1,0.1,0.2,0.1c0.2,0.2,0.3,0.4,0.2,0.8c0,0.4-0.2,0.8-0.3,1.3
				c-0.2,0.5-0.4,1.1-0.7,1.7c-0.3,0.6-0.5,1.2-0.8,1.8c-0.1,0.2-0.2,0.4-0.3,0.7c-0.1,0.3-0.2,0.5-0.3,0.8
				c-0.1,0.3-0.1,0.5-0.2,0.8c0,0.3-0.1,0.5,0,0.7c0,0.2,0.1,0.3,0.2,0.4c0.1,0.1,0.3,0.1,0.6,0c0.2,0,0.4-0.1,0.6-0.3
				c0.2-0.2,0.4-0.4,0.7-0.7c0.2-0.3,0.4-0.6,0.6-1c0.2-0.4,0.4-0.7,0.5-1.1c0.2-0.5,0.3-0.9,0.4-1.3c0.1-0.4,0.2-0.8,0.3-1.1
				c0-0.1,0.1-0.1,0.2-0.2c0.1,0,0.1,0,0.2,0c0.1,0,0.1,0.1,0.2,0.1c0,0.1,0,0.1,0,0.3c-0.1,0.4-0.2,0.8-0.3,1.2
				C93.3,172.3,93.2,172.7,93.1,173.1z"/>
			<path class="st7" d="M107.9,169.7c-0.2,0.5-0.4,1-0.7,1.5c-0.3,0.5-0.6,1-0.9,1.4c-0.3,0.4-0.7,0.7-1.1,0.8
				c-0.2,0.1-0.5,0.1-0.7,0.1c-0.2,0-0.5-0.1-0.7-0.2c-0.2-0.1-0.4-0.3-0.6-0.5c-0.2-0.2-0.3-0.5-0.4-0.9c-0.1-0.4-0.1-0.7-0.1-1.1
				c0-0.4,0-0.8,0-1.2c0-0.4,0.1-0.9,0.1-1.4c0.1-0.5,0.1-1.1,0.2-1.7c0.1-0.4,0.1-0.7,0.1-1c0-0.3,0-0.5-0.1-0.6
				c-0.1-0.1-0.2-0.1-0.4,0c-0.2,0.1-0.5,0.5-0.8,1c-0.4,0.6-0.7,1.2-1,1.7c-0.3,0.5-0.5,1.1-0.8,1.7c0,0.3-0.1,0.5-0.1,0.8
				c0,0.3-0.1,0.5-0.1,0.8c0,0.6,0,1.2,0,1.8c0,0.6,0.1,1.2,0.2,1.9c0,0.1,0,0.1-0.2,0.1c-0.2,0-0.3,0-0.6-0.1
				c-0.2,0-0.4-0.1-0.6-0.2c-0.2-0.1-0.3-0.2-0.3-0.3c-0.2-1-0.3-2-0.3-3c0-1,0.1-2.1,0.2-3.1c0.1-0.6,0.1-1,0.1-1.4
				c0-0.4-0.1-0.5-0.3-0.5c-0.1,0-0.3,0.1-0.4,0.3c-0.2,0.2-0.4,0.5-0.7,0.9c-0.4,0.6-0.7,1.2-1,1.7c-0.3,0.5-0.6,1.1-0.8,1.8
				c-0.1,0.9-0.2,1.7-0.2,2.6c0,0.9,0.1,1.7,0.3,2.6c0,0.1,0,0.1-0.2,0.1c-0.2,0-0.3,0-0.6-0.1c-0.2,0-0.4-0.1-0.6-0.2
				c-0.2-0.1-0.3-0.2-0.3-0.3c-0.2-0.8-0.3-1.6-0.3-2.4c0-0.8,0-1.6,0.1-2.5c0.1-0.8,0.1-1.7,0.2-2.5c0.1-0.8,0.1-1.7,0.2-2.5
				c0.1-0.1,0.3-0.1,0.5-0.1c0.2,0,0.5,0.1,0.7,0.2c0.2,0.1,0.5,0.3,0.6,0.5c0.2,0.2,0.3,0.4,0.3,0.6c0,0.2,0,0.3,0,0.5
				c0,0.2-0.1,0.3-0.1,0.5c0.2-0.4,0.4-0.8,0.7-1.2c0.2-0.4,0.5-0.7,0.8-1.1c0.3-0.3,0.6-0.6,0.9-0.9s0.6-0.4,1-0.6
				c0.1,0,0.3,0,0.5,0c0.2,0.1,0.4,0.2,0.6,0.3c0.2,0.1,0.3,0.3,0.4,0.4c0.1,0.2,0.2,0.3,0.2,0.5c0,0.2,0,0.4-0.1,0.6
				c0,0.2-0.1,0.4-0.1,0.6c0.2-0.4,0.4-0.8,0.6-1.2c0.2-0.4,0.5-0.8,0.8-1.1c0.3-0.3,0.6-0.6,0.9-0.9c0.3-0.3,0.7-0.5,1-0.6
				c0.1,0,0.3,0,0.5,0c0.2,0.1,0.4,0.2,0.6,0.3c0.2,0.1,0.3,0.3,0.4,0.4c0.1,0.2,0.2,0.3,0.1,0.5c-0.1,1-0.2,1.9-0.3,2.5
				c-0.1,0.7-0.2,1.3-0.3,1.9c-0.1,0.5-0.1,1.1-0.1,1.5c0,0.5,0,1,0.2,1.6c0,0,0,0.1,0.1,0.1c0,0,0.1,0.1,0.1,0.1c0.1,0,0.1,0,0.2,0
				s0.2-0.1,0.3-0.2c0.4-0.3,0.7-0.8,1.2-1.4c0.4-0.6,0.8-1.4,1.1-2.3c0.1-0.3,0.2-0.7,0.3-1c0.1-0.3,0.2-0.7,0.2-1
				c0-0.1,0.1-0.1,0.2-0.2c0.1,0,0.1,0,0.2,0c0.1,0,0.1,0.1,0.2,0.1c0,0.1,0.1,0.1,0,0.3l-0.6,2C108.2,168.8,108,169.2,107.9,169.7z
				"/>
			<path class="st7" d="M114.7,162.8c-0.3,1.3-0.8,2.4-1.6,3.4c-0.8,1-1.7,1.8-2.8,2.5c0.1,0.2,0.1,0.5,0.2,0.7
				c0.1,0.2,0.2,0.4,0.4,0.6c0.1,0.2,0.3,0.3,0.5,0.4c0.2,0.1,0.4,0.1,0.7,0.1c0.3,0,0.6-0.1,1-0.3c0.4-0.2,0.7-0.5,1.1-0.9
				c0.3-0.4,0.7-0.8,1-1.4c0.3-0.6,0.6-1.2,0.9-1.9c0.1-0.4,0.2-0.7,0.3-1.1c0.1-0.3,0.2-0.7,0.2-1c0-0.1,0.1-0.1,0.2-0.2
				c0.1,0,0.1,0,0.2,0c0.1,0,0.1,0.1,0.2,0.1c0,0.1,0.1,0.1,0,0.3c-0.1,0.3-0.2,0.7-0.3,1.1c-0.1,0.4-0.3,0.8-0.4,1.3
				c-0.2,0.5-0.3,0.9-0.5,1.4c-0.2,0.5-0.5,0.9-0.7,1.4c-0.3,0.5-0.6,0.8-0.9,1.1c-0.3,0.3-0.6,0.5-0.9,0.7
				c-0.3,0.2-0.6,0.3-0.8,0.4c-0.3,0.1-0.5,0.1-0.6,0.2c-0.9,0.3-1.7,0.2-2.3-0.1c-0.6-0.3-1.1-0.9-1.4-1.7
				c-0.2-0.8-0.3-1.6-0.2-2.4c0.1-0.8,0.3-1.8,0.8-2.9c0.1-0.3,0.3-0.7,0.6-1.2s0.6-0.8,0.9-1.2c0.4-0.4,0.8-0.8,1.2-1.1
				c0.4-0.3,0.9-0.5,1.4-0.7c0.3-0.1,0.6-0.1,0.9,0c0.3,0.1,0.5,0.2,0.7,0.4c0.2,0.2,0.3,0.5,0.3,0.8
				C114.8,162,114.8,162.4,114.7,162.8z M110.1,167.9C110.1,167.9,110.1,167.9,110.1,167.9c1-0.5,1.8-1.3,2.5-2.2
				c0.7-0.9,1.1-2,1.4-3.1c0.1-0.4,0-0.8-0.1-1c-0.2-0.2-0.4-0.3-0.8-0.1c-0.5,0.3-1,0.7-1.4,1.2c-0.4,0.5-0.7,1.1-0.9,1.8
				c-0.2,0.6-0.4,1.3-0.5,1.9C110.2,166.9,110.1,167.4,110.1,167.9z"/>
			<path class="st7" d="M115.7,159.7c-0.1,0.1-0.2,0.1-0.2,0.1c-0.1,0-0.1,0-0.2-0.1c0-0.1-0.1-0.1-0.1-0.2c0-0.1,0-0.2,0.1-0.2
				c0.8-0.9,1.7-1.7,2.6-2.4c0.2-0.9,0.3-1.7,0.4-2.5c0.1-0.8,0.1-1.4,0.1-2c0.1-0.1,0.3-0.1,0.6-0.1c0.3,0,0.5,0.1,0.7,0.2
				c0.2,0.1,0.5,0.3,0.6,0.5c0.2,0.2,0.3,0.4,0.2,0.6c0,0.2,0,0.4-0.1,0.7c0,0.3-0.1,0.7-0.2,1.1c1.3-0.7,2.6-1.2,4-1.5
				c0.1,0.1,0.1,0.2,0.1,0.4c0,0.1,0,0.3,0,0.4c0,0.1-0.1,0.2-0.2,0.3c-0.1,0.1-0.2,0.2-0.3,0.2c-0.7,0.1-1.3,0.3-2,0.6
				c-0.6,0.2-1.3,0.5-1.9,0.8c-0.1,0.3-0.1,0.7-0.2,1.1c-0.1,0.4-0.1,0.7-0.2,1c0,0.2-0.1,0.6-0.2,1.2c-0.1,0.6-0.2,1.2-0.4,2
				c-0.1,0.7-0.3,1.5-0.4,2.3c-0.1,0.8-0.2,1.5-0.2,2.2c0,0.6,0,1.2,0.1,1.6c0.1,0.4,0.2,0.6,0.5,0.5l0.2-0.1
				c0.4-0.3,0.8-0.6,1.1-1.1c0.3-0.5,0.6-1,0.8-1.5c0.2-0.5,0.4-1.1,0.5-1.6c0.2-0.6,0.3-1.1,0.4-1.6c0-0.1,0.1-0.1,0.1-0.2
				c0.1,0,0.1,0,0.2,0c0.1,0,0.1,0.1,0.2,0.1c0,0.1,0.1,0.1,0,0.3c-0.2,0.5-0.3,1-0.4,1.5c-0.1,0.5-0.3,1-0.4,1.5
				c-0.2,0.5-0.3,0.9-0.6,1.4c-0.2,0.5-0.5,0.9-0.7,1.3c-0.1,0.1-0.2,0.2-0.3,0.4c-0.1,0.1-0.3,0.3-0.4,0.4s-0.3,0.3-0.5,0.4
				c-0.2,0.1-0.4,0.2-0.6,0.3c-0.3,0.1-0.5,0.1-0.8,0c-0.2-0.1-0.4-0.2-0.6-0.4c-0.2-0.2-0.3-0.5-0.4-0.8c-0.1-0.3-0.2-0.6-0.2-1
				c-0.1-0.8-0.1-1.5-0.1-2.3c0-0.8,0.1-1.5,0.2-2.3c0.1-0.8,0.3-1.6,0.4-2.3c0.2-0.8,0.3-1.6,0.5-2.4l0-0.1c-0.3,0.3-0.7,0.5-1,0.8
				C116.3,159.1,116,159.4,115.7,159.7z"/>
		</g>
		<circle class="st7" cx="39.8" cy="184.6" r="2.4"/>
		<circle class="st7" cx="128.7" cy="160.7" r="2.4"/>
	</g>
	<g>
		<path class="st10" d="M206.6,231.1c0.8,0,1.6,0.1,2.2,0.4c0.6,0.3,1.2,0.6,1.6,1.1c0.4,0.5,0.7,1,0.9,1.7c0.2,0.6,0.3,1.3,0.3,2.1
			c0,2.1-0.6,3.7-1.7,4.9c-1.1,1.2-2.9,1.7-5.2,1.7c-0.6,0-1.2,0-1.8,0c-0.6,0-1.1-0.1-1.6-0.1c-0.5,0-0.8-0.1-1.1-0.1
			c-0.3,0-0.4,0-0.4,0c0.2-0.1,0.3-0.3,0.5-0.5c0.1-0.2,0.2-0.4,0.3-0.7c0.1-0.3,0.2-0.7,0.2-1.1v-12.3c0-0.4-0.1-0.8-0.2-1.1
			c-0.1-0.3-0.2-0.5-0.3-0.7c-0.1-0.2-0.3-0.4-0.5-0.5l4-0.5v6.5c0.2-0.1,0.5-0.2,1-0.4C205.3,231.2,205.9,231.1,206.6,231.1z
			 M203.8,237.3v4c0.3,0.1,0.7,0.1,1.1,0.1c0.5,0,1-0.1,1.4-0.3c0.5-0.2,0.9-0.5,1.3-1c0.7-0.9,1.1-2.1,1.1-3.6c0-1.3-0.3-2.4-0.8-3
			c-0.2-0.3-0.5-0.4-0.7-0.6c-0.3-0.1-0.5-0.2-0.8-0.3c-0.5-0.1-0.9-0.1-1.4,0c-0.3,0.1-0.5,0.1-0.7,0.2c-0.2,0.1-0.4,0.2-0.5,0.3
			V237.3z"/>
		<path class="st10" d="M217.4,241.5c0.1,0.3,0.2,0.5,0.3,0.7c0.1,0.2,0.3,0.4,0.5,0.5h-5c0.2-0.1,0.3-0.3,0.5-0.5
			c0.1-0.2,0.2-0.4,0.3-0.7c0.1-0.3,0.2-0.7,0.2-1.1v-12.3c0-0.4-0.1-0.8-0.2-1.1c-0.1-0.3-0.2-0.5-0.3-0.7
			c-0.1-0.2-0.3-0.4-0.5-0.5l4-0.5v15.1C217.2,240.8,217.3,241.2,217.4,241.5z"/>
		<path class="st10" d="M229.9,240.4c0,0.4,0.1,0.8,0.2,1.1c0.1,0.3,0.2,0.5,0.3,0.7c0.1,0.2,0.3,0.4,0.5,0.5h-2.1
			c-0.4,0-0.8-0.1-1.1-0.3c-0.3-0.2-0.5-0.5-0.7-0.9c-0.1,0.1-0.3,0.3-0.6,0.4c-0.2,0.2-0.5,0.3-0.8,0.5c-0.3,0.2-0.7,0.3-1.1,0.4
			c-0.4,0.1-0.8,0.2-1.3,0.2c-0.5,0-0.9-0.1-1.3-0.2s-0.8-0.3-1.1-0.6s-0.6-0.6-0.8-1c-0.2-0.4-0.3-0.9-0.3-1.4
			c0-0.8,0.2-1.4,0.6-1.9c0.4-0.5,0.9-0.9,1.6-1.2c0.7-0.3,1.4-0.5,2.3-0.6c0.8-0.1,1.7-0.2,2.6-0.2v-1c0-0.6-0.2-1.1-0.5-1.5
			c-0.3-0.4-0.8-0.5-1.6-0.5c-0.4,0-0.8,0.1-1.2,0.2c-0.4,0.1-0.8,0.3-1.1,0.5c-0.4,0.2-0.7,0.4-1,0.6v-2.3c0.3-0.1,0.7-0.3,1.1-0.4
			c0.4-0.1,0.8-0.2,1.3-0.3c0.5-0.1,1-0.1,1.5-0.1c0.6,0,1.2,0.1,1.7,0.3c0.5,0.2,1,0.5,1.4,1c0.4,0.4,0.7,0.9,1,1.4
			c0.2,0.5,0.3,1.1,0.3,1.7V240.4z M222.9,239.6c0,0.5,0.1,0.9,0.4,1.3c0.3,0.4,0.7,0.6,1.4,0.6c0.3,0,0.6,0,0.8-0.1
			c0.3-0.1,0.5-0.2,0.7-0.3c0.2-0.1,0.3-0.2,0.5-0.3c0.1-0.1,0.2-0.2,0.3-0.2v-3.7c-0.3,0-0.7,0.1-1.1,0.1c-0.5,0.1-0.9,0.2-1.3,0.4
			c-0.4,0.2-0.8,0.5-1.1,0.8C223,238.6,222.9,239,222.9,239.6z"/>
		<path class="st10" d="M244.6,241.5c0.1,0.3,0.2,0.5,0.3,0.7c0.1,0.2,0.3,0.4,0.5,0.5h-4.9c0.2-0.1,0.3-0.3,0.5-0.5
			c0.1-0.2,0.2-0.4,0.3-0.7c0.1-0.3,0.2-0.7,0.2-1.1v-4.9c0-1.1-0.2-1.8-0.6-2.2c-0.4-0.4-0.9-0.6-1.6-0.6c-0.4,0-0.7,0.1-1,0.2
			c-0.3,0.2-0.6,0.3-0.8,0.6c-0.2,0.2-0.4,0.4-0.6,0.6c-0.2,0.2-0.3,0.4-0.3,0.5v5.8c0,0.4,0,0.8,0.1,1.1s0.2,0.5,0.3,0.7
			c0.1,0.2,0.3,0.4,0.5,0.5h-4.9c0.2-0.1,0.3-0.3,0.5-0.5c0.1-0.2,0.2-0.4,0.3-0.7c0.1-0.3,0.2-0.7,0.2-1.1V234
			c0-0.4-0.1-0.8-0.2-1.1c-0.1-0.3-0.2-0.5-0.3-0.7c-0.1-0.2-0.3-0.4-0.5-0.5l4-0.5v1.4c0.4-0.3,0.9-0.7,1.4-0.9
			c0.6-0.3,1.3-0.4,2.1-0.4c1.4,0,2.5,0.4,3.2,1.2c0.7,0.8,1.1,2,1.1,3.7v4.4C244.4,240.8,244.5,241.2,244.6,241.5z"/>
		<path class="st10" d="M253.2,241.4c0.7,0,1.3-0.1,1.8-0.3c0.5-0.2,0.9-0.4,1.3-0.7c0.4-0.3,0.8-0.6,1-1L257,242
			c-0.3,0.2-0.7,0.4-1.1,0.5c-0.4,0.1-0.8,0.2-1.3,0.3c-0.5,0.1-1.1,0.2-1.7,0.2c-0.9,0-1.7-0.1-2.4-0.4c-0.7-0.3-1.3-0.7-1.9-1.2
			c-0.5-0.5-0.9-1.1-1.2-1.9c-0.3-0.8-0.4-1.6-0.4-2.6c0-1,0.2-1.9,0.5-2.6c0.3-0.7,0.8-1.3,1.3-1.8c0.5-0.5,1.1-0.8,1.8-1.1
			c0.7-0.2,1.4-0.3,2.1-0.3c0.6,0,1.1,0,1.5,0.1c0.5,0.1,0.9,0.2,1.2,0.3c0.4,0.1,0.7,0.3,1,0.4v2.5c-0.2-0.3-0.5-0.6-0.8-0.9
			c-0.3-0.2-0.6-0.4-1-0.6c-0.4-0.2-0.9-0.3-1.4-0.3c-0.4,0-0.8,0.1-1.2,0.2c-0.4,0.2-0.8,0.4-1.1,0.7c-0.3,0.3-0.6,0.8-0.7,1.3
			c-0.2,0.5-0.3,1.2-0.3,2c0,1.5,0.3,2.7,0.9,3.4C251.4,241.1,252.2,241.4,253.2,241.4z"/>
		<path class="st10" d="M264.7,231.1c0.9,0,1.6,0.1,2.4,0.4c0.7,0.3,1.3,0.6,1.9,1.1c0.5,0.5,0.9,1.1,1.2,1.9s0.5,1.6,0.5,2.5
			c0,1-0.2,1.8-0.5,2.5s-0.7,1.4-1.2,1.9c-0.5,0.5-1.2,0.9-1.9,1.1c-0.7,0.3-1.5,0.4-2.4,0.4c-0.9,0-1.6-0.1-2.4-0.4
			c-0.7-0.3-1.3-0.6-1.9-1.1c-0.5-0.5-0.9-1.1-1.3-1.9s-0.5-1.6-0.5-2.5c0-1,0.2-1.8,0.5-2.5s0.7-1.4,1.3-1.9
			c0.5-0.5,1.2-0.9,1.9-1.1C263,231.3,263.8,231.1,264.7,231.1z M264.4,232.7c-0.4,0-0.7,0.1-1.1,0.2c-0.3,0.2-0.7,0.4-0.9,0.7
			c-0.3,0.3-0.4,0.8-0.6,1.4c-0.1,0.6-0.2,1.3-0.1,2.1c0,0.8,0.2,1.5,0.4,2c0.2,0.6,0.5,1,0.8,1.3c0.3,0.3,0.6,0.6,1,0.7
			c0.4,0.2,0.7,0.2,1.1,0.2c0.4,0,0.7-0.1,1.1-0.2c0.3-0.2,0.6-0.4,0.9-0.7c0.3-0.3,0.5-0.8,0.6-1.3c0.1-0.6,0.2-1.2,0.1-2
			c0-0.8-0.2-1.5-0.4-2.1c-0.2-0.6-0.5-1-0.7-1.4c-0.3-0.3-0.6-0.6-1-0.7C265.2,232.8,264.8,232.7,264.4,232.7z"/>
	</g>
	<g>
		<path class="st2" d="M362.4,416c-0.2,0.4-0.2,0.7-0.2,1c0,0.3,0,0.5,0.1,0.6c0.1,0.2,0.1,0.3,0.2,0.5h-4.7
			c0.2-0.1,0.4-0.3,0.6-0.5c0.2-0.2,0.3-0.4,0.5-0.6c0.2-0.3,0.4-0.6,0.5-1l4.2-11.2h-2.8c-0.6,0-1.2,0-1.6,0.1
			c-0.4,0.1-0.7,0.2-1,0.3c-0.3,0.1-0.5,0.3-0.6,0.5v-2.5h9.6L362.4,416z"/>
		<path class="st2" d="M374.1,403c0.7,0,1.5,0.2,2.2,0.5c0.7,0.3,1.3,0.8,1.9,1.4c0.5,0.6,1,1.4,1.3,2.4c0.3,1,0.5,2.1,0.5,3.4
			c0,1.3-0.2,2.4-0.5,3.4c-0.3,1-0.8,1.8-1.3,2.4c-0.5,0.6-1.2,1.1-1.9,1.4c-0.7,0.3-1.4,0.5-2.2,0.5s-1.5-0.2-2.2-0.5
			c-0.7-0.3-1.3-0.8-1.9-1.4c-0.5-0.6-1-1.4-1.3-2.4c-0.3-1-0.5-2.1-0.5-3.4c0-1.3,0.2-2.4,0.5-3.4s0.8-1.8,1.3-2.4
			c0.5-0.6,1.2-1.1,1.9-1.4C372.6,403.1,373.3,403,374.1,403z M374.1,416.7c0.4,0,0.8-0.1,1.2-0.3c0.4-0.2,0.7-0.6,1-1.1
			c0.3-0.5,0.5-1.1,0.6-1.9c0.2-0.8,0.2-1.7,0.2-2.8c0-1.1-0.1-2-0.2-2.8c-0.2-0.8-0.4-1.4-0.6-1.9c-0.3-0.5-0.6-0.8-1-1.1
			c-0.4-0.2-0.8-0.3-1.2-0.3c-0.4,0-0.8,0.1-1.2,0.3c-0.4,0.2-0.7,0.6-1,1.1c-0.3,0.5-0.5,1.1-0.6,1.9c-0.2,0.8-0.2,1.7-0.2,2.8
			c0,1.1,0.1,2,0.2,2.8c0.2,0.8,0.4,1.4,0.6,1.9c0.3,0.5,0.6,0.8,1,1.1C373.2,416.6,373.6,416.7,374.1,416.7z"/>
		<path class="st2" d="M384.4,416.7c0,0.2,0.1,0.4,0.4,0.5c0.2,0.1,0.6,0.2,0.9,0.2c0.4,0,0.8,0.1,1.3,0.1c0.5,0,1,0.1,1.5,0.1
			c0.5,0,1,0.1,1.5,0.2c0.5,0.1,0.9,0.2,1.3,0.4c0.4,0.2,0.7,0.5,0.9,0.8c0.2,0.3,0.4,0.8,0.4,1.3c0,0.5-0.2,1-0.5,1.4
			c-0.3,0.4-0.7,0.8-1.3,1.1c-0.5,0.3-1.2,0.6-1.9,0.7c-0.7,0.2-1.5,0.2-2.3,0.2c-0.8,0-1.6-0.1-2.2-0.2c-0.7-0.1-1.2-0.3-1.7-0.6
			c-0.5-0.2-0.8-0.5-1-0.9c-0.2-0.3-0.3-0.7-0.3-1c0-0.5,0.1-0.8,0.4-1.1c0.3-0.2,0.6-0.4,0.9-0.4c0.4-0.1,0.8-0.1,1.4,0
			c-0.1,0.1-0.1,0.1-0.2,0.2c-0.1,0.1-0.1,0.2-0.1,0.3c0,0.1-0.1,0.3-0.1,0.4c0,0.3,0.1,0.6,0.3,0.9c0.2,0.3,0.4,0.5,0.7,0.7
			c0.3,0.2,0.6,0.3,1,0.4c0.4,0.1,0.8,0.1,1.2,0.1c0.6,0,1.1-0.1,1.5-0.2c0.4-0.1,0.7-0.3,0.9-0.5c0.2-0.2,0.4-0.4,0.5-0.7
			s0.1-0.5,0.1-0.7c0-0.5-0.2-0.9-0.6-1.1c-0.4-0.2-0.9-0.4-1.4-0.5c-0.6-0.1-1.2-0.1-1.8-0.1c-0.7,0-1.3,0-1.8-0.1s-1-0.2-1.4-0.4
			c-0.4-0.2-0.6-0.5-0.6-1c0-0.2,0.1-0.5,0.2-0.7s0.3-0.4,0.5-0.6s0.4-0.3,0.6-0.5c0.2-0.1,0.4-0.3,0.6-0.4
			c-0.7-0.3-1.3-0.8-1.8-1.4c-0.4-0.6-0.6-1.3-0.6-2.1c0-0.6,0.1-1.1,0.4-1.6c0.2-0.5,0.6-0.9,1-1.3c0.4-0.4,1-0.7,1.6-0.9
			c0.6-0.2,1.3-0.3,2-0.3c0.3,0,0.6,0,0.9,0.1c0.5-0.8,1.1-1.4,1.6-1.7c0.5-0.3,1-0.3,1.5-0.1c0.2,0.1,0.4,0.3,0.5,0.5
			c0.1,0.2,0.2,0.4,0.3,0.7c0.1,0.2,0.1,0.5,0.1,0.8c-0.2-0.2-0.5-0.2-0.8-0.3s-0.5,0-0.7,0c-0.2,0-0.5,0.1-0.7,0.2
			c-0.2,0.1-0.4,0.2-0.6,0.3c0.9,0.3,1.6,0.8,2,1.5c0.5,0.7,0.7,1.4,0.7,2.2c0,0.6-0.1,1.1-0.3,1.6c-0.2,0.5-0.6,0.9-1,1.3
			c-0.4,0.4-1,0.7-1.6,0.9c-0.6,0.2-1.3,0.3-2,0.3c-0.5,0-1-0.1-1.5-0.2c-0.2,0.1-0.4,0.3-0.6,0.4
			C384.5,416.4,384.4,416.6,384.4,416.7z M386.6,409.2c-0.7,0-1.2,0.2-1.6,0.7c-0.4,0.5-0.5,1.1-0.5,2c0.1,0.9,0.3,1.5,0.8,2
			c0.5,0.5,1.1,0.7,1.8,0.7s1.3-0.2,1.6-0.7c0.4-0.5,0.5-1.1,0.5-2c-0.1-0.9-0.3-1.5-0.8-2C387.9,409.5,387.3,409.2,386.6,409.2z"/>
	</g>
	<g>
		<path class="st2" d="M104.2,401.8c0.1-0.1,0.2-0.3,0.3-0.5c0.1-0.2,0.1-0.4,0.1-0.7c0-0.3-0.1-0.6-0.2-1l-0.7-2.2h-5.3l-0.7,2.2
			c-0.1,0.4-0.2,0.7-0.2,1c0,0.3,0,0.5,0.1,0.7c0.1,0.2,0.2,0.4,0.3,0.5h-3.8c0.2-0.1,0.4-0.3,0.6-0.5c0.2-0.2,0.3-0.4,0.5-0.7
			c0.2-0.3,0.4-0.6,0.5-1l3.7-11.4c0.1-0.4,0.2-0.7,0.2-1c0-0.3,0-0.5-0.1-0.7c-0.1-0.2-0.2-0.4-0.3-0.5h1.9c0.5,0,1,0.2,1.5,0.5
			c0.4,0.3,0.7,0.7,0.9,1.2l3.9,11.9c0.1,0.4,0.3,0.7,0.5,1c0.2,0.3,0.4,0.5,0.5,0.7c0.2,0.2,0.4,0.4,0.6,0.5H104.2z M103.2,395.9
			l-2.2-7.1l-2.2,7.1H103.2z"/>
		<path class="st2" d="M115.7,400.6c0.1,0.3,0.2,0.5,0.3,0.7c0.1,0.2,0.3,0.4,0.5,0.5h-4.6c0.2-0.1,0.3-0.3,0.4-0.5
			c0.1-0.2,0.2-0.4,0.3-0.7c0.1-0.3,0.1-0.6,0.1-1v-11.4c0-0.4,0-0.7-0.1-1c-0.1-0.3-0.2-0.5-0.3-0.7c-0.1-0.2-0.3-0.4-0.4-0.5
			l3.7-0.4v14.1C115.6,400,115.6,400.4,115.7,400.6z"/>
		<path class="st2" d="M124.6,385.6c0.3,0,0.7,0,1,0.1c0.3,0,0.6,0.1,0.8,0.2c0.3,0.1,0.5,0.1,0.7,0.2v2.2c-0.2-0.2-0.4-0.3-0.6-0.5
			c-0.2-0.1-0.4-0.2-0.6-0.3c-0.2-0.1-0.5-0.2-0.8-0.2c-0.4,0-0.7,0.1-0.9,0.4c-0.2,0.2-0.3,0.6-0.3,1.2v2.2h3v1.8
			c-0.1-0.1-0.3-0.1-0.5-0.2c-0.2,0-0.4-0.1-0.7-0.1c-0.3,0-0.6-0.1-1-0.1h-0.8v7.2c0,0.4,0,0.7,0.1,1c0.1,0.3,0.2,0.5,0.3,0.7
			c0.1,0.2,0.3,0.4,0.5,0.5h-4.6c0.1-0.1,0.3-0.3,0.4-0.5c0.1-0.2,0.2-0.4,0.3-0.6c0.1-0.3,0.1-0.6,0.2-0.9v-7.4h-1.5l0.6-1.4h0.9
			v-2c0-1.1,0.3-2,1-2.6C122.7,385.9,123.6,385.6,124.6,385.6z"/>
		<path class="st2" d="M138.4,399.6c0,0.4,0,0.7,0.1,1c0.1,0.3,0.2,0.5,0.3,0.7c0.1,0.2,0.3,0.4,0.5,0.5h-1.9c-0.4,0-0.7-0.1-1-0.3
			c-0.3-0.2-0.5-0.5-0.6-0.8c-0.1,0.1-0.3,0.3-0.5,0.4c-0.2,0.1-0.5,0.3-0.8,0.4c-0.3,0.1-0.6,0.3-1,0.4c-0.4,0.1-0.8,0.1-1.2,0.1
			c-0.4,0-0.9-0.1-1.3-0.2c-0.4-0.1-0.7-0.3-1-0.5c-0.3-0.2-0.5-0.6-0.7-0.9c-0.2-0.4-0.3-0.8-0.3-1.3c0-0.7,0.2-1.3,0.6-1.8
			c0.4-0.5,0.9-0.8,1.5-1.1c0.6-0.3,1.3-0.5,2.1-0.6c0.8-0.1,1.6-0.2,2.4-0.2v-1c0-0.6-0.2-1-0.5-1.4c-0.3-0.3-0.8-0.5-1.5-0.5
			c-0.4,0-0.8,0.1-1.2,0.2c-0.4,0.1-0.7,0.3-1,0.4c-0.3,0.2-0.7,0.4-1,0.6v-2.1c0.3-0.1,0.7-0.3,1.1-0.4c0.3-0.1,0.7-0.2,1.2-0.3
			s0.9-0.1,1.4-0.1c0.6,0,1.1,0.1,1.6,0.3c0.5,0.2,0.9,0.5,1.3,0.9c0.4,0.4,0.7,0.8,0.9,1.3c0.2,0.5,0.3,1,0.3,1.6V399.6z
			 M131.8,398.9c0,0.5,0.1,0.9,0.4,1.2c0.3,0.3,0.7,0.5,1.3,0.5c0.3,0,0.5,0,0.8-0.1c0.2-0.1,0.4-0.1,0.6-0.2
			c0.2-0.1,0.3-0.2,0.4-0.3c0.1-0.1,0.2-0.2,0.3-0.2v-3.4c-0.3,0-0.6,0.1-1,0.1c-0.4,0.1-0.8,0.2-1.3,0.4c-0.4,0.2-0.8,0.4-1.1,0.8
			C132,397.9,131.8,398.4,131.8,398.9z"/>
		<path class="st2" d="M146.4,391v11c0,0.5-0.1,0.9-0.3,1.3c-0.2,0.4-0.4,0.8-0.7,1.1c-0.3,0.3-0.7,0.6-1.1,0.7
			c-0.4,0.2-0.9,0.3-1.3,0.3h-0.2H142c0.8-0.7,1.2-1.5,1.4-2.5c0-0.1,0.1-0.2,0.1-0.4c0-0.2,0-0.4,0.1-0.6c0-0.2,0-0.4,0-0.6
			c0-0.2,0-0.3,0-0.4v-7.1c0,0,0-0.1,0-0.2c0-0.1,0-0.1,0-0.2c0-0.4-0.1-0.7-0.2-0.9c-0.1-0.3-0.2-0.5-0.3-0.6
			c-0.1-0.2-0.3-0.3-0.4-0.5L146.4,391z M144.7,389.5c-0.5,0-0.9-0.2-1.2-0.5c-0.3-0.3-0.5-0.7-0.5-1.2c0-0.5,0.2-0.9,0.5-1.2
			c0.3-0.3,0.7-0.5,1.2-0.5c0.5,0,0.9,0.2,1.2,0.5c0.3,0.3,0.5,0.7,0.5,1.2c0,0.5-0.2,0.9-0.5,1.2
			C145.6,389.3,145.2,389.5,144.7,389.5z"/>
		<path class="st2" d="M155.9,391c0.8,0,1.5,0.1,2.2,0.4c0.7,0.2,1.3,0.6,1.8,1.1c0.5,0.5,0.9,1,1.2,1.7c0.3,0.7,0.4,1.5,0.4,2.4
			s-0.1,1.7-0.4,2.4c-0.3,0.7-0.7,1.3-1.2,1.7c-0.5,0.5-1.1,0.8-1.8,1.1c-0.7,0.2-1.4,0.4-2.2,0.4s-1.5-0.1-2.2-0.4
			c-0.7-0.2-1.3-0.6-1.8-1.1c-0.5-0.5-0.9-1-1.2-1.7c-0.3-0.7-0.4-1.5-0.4-2.4s0.1-1.7,0.4-2.4c0.3-0.7,0.7-1.3,1.2-1.7
			c0.5-0.5,1.1-0.8,1.8-1.1C154.4,391.1,155.1,391,155.9,391z M155.7,392.4c-0.4,0-0.7,0.1-1,0.2c-0.3,0.1-0.6,0.4-0.8,0.7
			c-0.2,0.3-0.4,0.7-0.5,1.3c-0.1,0.5-0.2,1.2-0.1,1.9c0,0.8,0.2,1.4,0.4,1.9c0.2,0.5,0.4,0.9,0.7,1.3c0.3,0.3,0.6,0.5,0.9,0.7
			c0.3,0.1,0.7,0.2,1,0.2c0.4,0,0.7-0.1,1-0.2c0.3-0.1,0.6-0.4,0.8-0.7c0.2-0.3,0.4-0.7,0.5-1.3c0.1-0.5,0.2-1.2,0.1-1.9
			c0-0.8-0.2-1.4-0.4-1.9c-0.2-0.5-0.4-0.9-0.7-1.3c-0.3-0.3-0.6-0.5-0.9-0.7C156.4,392.5,156,392.4,155.7,392.4z"/>
		<path class="st2" d="M169.3,391.3c0.4-0.3,1-0.5,1.6-0.5c0.2,0,0.3,0,0.5,0c0.1,0,0.3,0,0.4,0.1c0.1,0,0.2,0.1,0.3,0.1v2.4
			c-0.1-0.1-0.2-0.1-0.4-0.2c-0.1,0-0.3-0.1-0.5-0.1c-0.2,0-0.4-0.1-0.6-0.1c-0.6,0-1.1,0.2-1.4,0.5c-0.3,0.3-0.6,0.6-0.7,1
			c-0.1,0.4-0.2,0.7-0.3,1c0,0.3,0,0.5,0,0.5v3.7c0,0.4,0,0.7,0.1,1c0.1,0.3,0.2,0.5,0.3,0.7c0.1,0.2,0.3,0.4,0.5,0.5h-4.6
			c0.2-0.1,0.3-0.3,0.4-0.5c0.1-0.2,0.2-0.4,0.3-0.7c0.1-0.3,0.1-0.6,0.1-1v-6.4c0-0.4,0-0.7-0.1-1c-0.1-0.3-0.2-0.5-0.3-0.7
			c-0.1-0.2-0.3-0.4-0.4-0.5h3.7v1.5C168.5,392.1,168.9,391.6,169.3,391.3z"/>
		<path class="st2" d="M180.6,391c1.7,0,2.9,0.5,3.8,1.5c0.9,1,1.4,2.4,1.4,4.2h-7.9c0,0.7,0.1,1.2,0.3,1.7c0.2,0.5,0.5,0.9,0.8,1.2
			c0.3,0.3,0.7,0.6,1.1,0.7c0.4,0.2,0.9,0.2,1.4,0.2c0.7,0,1.4-0.1,1.9-0.3c0.5-0.2,1-0.4,1.4-0.6c0.4-0.3,0.8-0.5,1.1-0.8l-0.3,2.3
			c-0.3,0.1-0.7,0.3-1.2,0.4c-0.4,0.1-0.8,0.2-1.4,0.3s-1.2,0.1-1.9,0.1c-0.9,0-1.7-0.1-2.4-0.4c-0.7-0.3-1.4-0.6-1.9-1.1
			c-0.5-0.5-0.9-1.1-1.2-1.8c-0.3-0.7-0.4-1.5-0.4-2.4c0-0.9,0.2-1.7,0.5-2.4c0.3-0.7,0.7-1.2,1.2-1.7c0.5-0.4,1.1-0.8,1.8-1
			C179.2,391.1,179.9,391,180.6,391z M180.6,392.2c-0.7,0-1.3,0.2-1.8,0.7c-0.5,0.5-0.8,1.2-0.9,2.3h5.1c0-0.4,0-0.8-0.1-1.2
			c-0.1-0.4-0.2-0.7-0.4-1c-0.2-0.3-0.4-0.5-0.7-0.7C181.4,392.3,181,392.2,180.6,392.2z"/>
		<path class="st2" d="M191.9,393.1c0,0.3,0.1,0.6,0.4,0.9c0.3,0.2,0.7,0.5,1.1,0.7c0.4,0.2,0.9,0.5,1.4,0.7c0.5,0.2,1,0.5,1.4,0.8
			c0.4,0.3,0.8,0.7,1.1,1.1c0.3,0.4,0.4,0.9,0.4,1.5c0,0.5-0.1,1-0.4,1.4c-0.2,0.4-0.6,0.7-1,1c-0.4,0.3-0.9,0.5-1.4,0.6
			c-0.6,0.1-1.1,0.2-1.8,0.2c-0.7,0-1.2,0-1.7-0.1c-0.5-0.1-0.9-0.2-1.2-0.3c-0.4-0.1-0.7-0.3-1-0.5l-0.2-2.5c0.3,0.4,0.7,0.7,1.1,1
			c0.3,0.3,0.7,0.5,1.2,0.7c0.5,0.2,1,0.3,1.5,0.3c0.7,0,1.2-0.1,1.5-0.3c0.4-0.2,0.5-0.6,0.5-1c0-0.4-0.1-0.7-0.4-1
			c-0.3-0.3-0.6-0.5-1.1-0.8c-0.4-0.2-0.9-0.5-1.4-0.7c-0.5-0.2-1-0.5-1.4-0.8c-0.4-0.3-0.8-0.6-1.1-1c-0.3-0.4-0.4-0.9-0.4-1.4
			c0-0.4,0.1-0.7,0.2-1c0.2-0.3,0.4-0.6,0.7-0.9c0.3-0.3,0.7-0.5,1.2-0.6c0.5-0.2,1.1-0.2,1.8-0.2c0.5,0,1,0,1.4,0.1
			c0.5,0.1,0.8,0.2,1.2,0.3c0.4,0.1,0.8,0.3,1.1,0.4v2c-0.3-0.3-0.6-0.5-1-0.7c-0.3-0.2-0.7-0.4-1.1-0.5c-0.4-0.2-0.9-0.2-1.4-0.2
			c-0.5,0-0.9,0.1-1.2,0.3C192,392.6,191.9,392.8,191.9,393.1z"/>
		<path class="st2" d="M218.1,401.8c0.1-0.1,0.2-0.3,0.3-0.5c0.1-0.2,0.1-0.4,0.1-0.7c0-0.3-0.1-0.6-0.2-1l-0.7-2.2h-5.3l-0.7,2.2
			c-0.1,0.4-0.2,0.7-0.2,1c0,0.3,0,0.5,0.1,0.7c0.1,0.2,0.2,0.4,0.3,0.5H208c0.2-0.1,0.4-0.3,0.6-0.5c0.2-0.2,0.3-0.4,0.5-0.7
			c0.2-0.3,0.4-0.6,0.5-1l3.7-11.4c0.1-0.4,0.2-0.7,0.2-1c0-0.3,0-0.5-0.1-0.7c-0.1-0.2-0.2-0.4-0.3-0.5h1.9c0.5,0,1,0.2,1.5,0.5
			c0.4,0.3,0.7,0.7,0.9,1.2l3.9,11.9c0.1,0.4,0.3,0.7,0.5,1c0.2,0.3,0.4,0.5,0.5,0.7c0.2,0.2,0.4,0.4,0.6,0.5H218.1z M217.2,395.9
			l-2.2-7.1l-2.2,7.1H217.2z"/>
		<path class="st2" d="M230.5,391.3c0.4-0.3,1-0.5,1.6-0.5c0.2,0,0.3,0,0.5,0c0.1,0,0.3,0,0.4,0.1c0.1,0,0.2,0.1,0.3,0.1v2.4
			c-0.1-0.1-0.2-0.1-0.4-0.2c-0.1,0-0.3-0.1-0.5-0.1c-0.2,0-0.4-0.1-0.6-0.1c-0.6,0-1.1,0.2-1.4,0.5c-0.3,0.3-0.6,0.6-0.7,1
			c-0.1,0.4-0.2,0.7-0.3,1c0,0.3,0,0.5,0,0.5v3.7c0,0.4,0,0.7,0.1,1c0.1,0.3,0.2,0.5,0.3,0.7c0.1,0.2,0.3,0.4,0.5,0.5h-4.6
			c0.2-0.1,0.3-0.3,0.4-0.5c0.1-0.2,0.2-0.4,0.3-0.7c0.1-0.3,0.1-0.6,0.1-1v-6.4c0-0.4,0-0.7-0.1-1c-0.1-0.3-0.2-0.5-0.3-0.7
			c-0.1-0.2-0.3-0.4-0.4-0.5h3.7v1.5C229.8,392.1,230.1,391.6,230.5,391.3z"/>
		<path class="st2" d="M240.9,391h2.7v1.8c-0.1-0.1-0.3-0.1-0.5-0.2c-0.2,0-0.4-0.1-0.7-0.1c-0.3,0-0.6-0.1-1-0.1h-0.5v6
			c0,0.4,0,0.7,0.1,0.9c0.1,0.2,0.2,0.4,0.3,0.6c0.1,0.1,0.3,0.2,0.4,0.3c0.2,0.1,0.3,0.1,0.5,0.1c0.2,0,0.4,0,0.6-0.1
			c0.2,0,0.3-0.1,0.4-0.1c0.1-0.1,0.2-0.1,0.3-0.2l-0.2,1.8h-2.5c-0.4,0-0.7-0.1-1.1-0.2c-0.3-0.1-0.6-0.3-0.9-0.6
			c-0.3-0.3-0.4-0.5-0.6-0.9c-0.1-0.3-0.2-0.7-0.2-1.1v-6.6h-1.5v-0.8c0.7-0.2,1.3-0.5,1.8-0.9c0.4-0.4,0.8-0.9,1-1.3
			c0.2-0.5,0.4-0.9,0.4-1.4s0.1-0.8,0.1-1.1h1V391z"/>
		<path class="st2" d="M252.3,391c1.7,0,2.9,0.5,3.8,1.5c0.9,1,1.4,2.4,1.4,4.2h-7.9c0,0.7,0.1,1.2,0.3,1.7c0.2,0.5,0.5,0.9,0.8,1.2
			c0.3,0.3,0.7,0.6,1.1,0.7c0.4,0.2,0.9,0.2,1.4,0.2c0.7,0,1.4-0.1,1.9-0.3c0.5-0.2,1-0.4,1.4-0.6c0.4-0.3,0.8-0.5,1.1-0.8l-0.3,2.3
			c-0.3,0.1-0.7,0.3-1.2,0.4c-0.4,0.1-0.8,0.2-1.4,0.3s-1.2,0.1-1.9,0.1c-0.9,0-1.7-0.1-2.4-0.4c-0.7-0.3-1.4-0.6-1.9-1.1
			c-0.5-0.5-0.9-1.1-1.2-1.8c-0.3-0.7-0.4-1.5-0.4-2.4c0-0.9,0.2-1.7,0.5-2.4c0.3-0.7,0.7-1.2,1.2-1.7c0.5-0.4,1.1-0.8,1.8-1
			C250.9,391.1,251.6,391,252.3,391z M252.3,392.2c-0.7,0-1.3,0.2-1.8,0.7c-0.5,0.5-0.8,1.2-0.9,2.3h5.1c0-0.4,0-0.8-0.1-1.2
			c-0.1-0.4-0.2-0.7-0.4-1c-0.2-0.3-0.4-0.5-0.7-0.7C253.2,392.3,252.8,392.2,252.3,392.2z"/>
		<path class="st2" d="M263.6,393.1c0,0.3,0.1,0.6,0.4,0.9c0.3,0.2,0.7,0.5,1.1,0.7c0.4,0.2,0.9,0.5,1.4,0.7c0.5,0.2,1,0.5,1.4,0.8
			c0.4,0.3,0.8,0.7,1.1,1.1c0.3,0.4,0.4,0.9,0.4,1.5c0,0.5-0.1,1-0.4,1.4c-0.2,0.4-0.6,0.7-1,1c-0.4,0.3-0.9,0.5-1.4,0.6
			c-0.6,0.1-1.1,0.2-1.8,0.2c-0.7,0-1.2,0-1.7-0.1c-0.5-0.1-0.9-0.2-1.2-0.3c-0.4-0.1-0.7-0.3-1-0.5l-0.2-2.5c0.3,0.4,0.7,0.7,1.1,1
			c0.3,0.3,0.7,0.5,1.2,0.7c0.5,0.2,1,0.3,1.5,0.3c0.7,0,1.2-0.1,1.5-0.3c0.4-0.2,0.5-0.6,0.5-1c0-0.4-0.1-0.7-0.4-1
			c-0.3-0.3-0.6-0.5-1.1-0.8c-0.4-0.2-0.9-0.5-1.4-0.7c-0.5-0.2-1-0.5-1.4-0.8c-0.4-0.3-0.8-0.6-1.1-1c-0.3-0.4-0.4-0.9-0.4-1.4
			c0-0.4,0.1-0.7,0.2-1c0.2-0.3,0.4-0.6,0.7-0.9s0.7-0.5,1.2-0.6c0.5-0.2,1.1-0.2,1.8-0.2c0.5,0,1,0,1.4,0.1
			c0.5,0.1,0.8,0.2,1.2,0.3c0.4,0.1,0.8,0.3,1.1,0.4v2c-0.3-0.3-0.6-0.5-1-0.7c-0.3-0.2-0.7-0.4-1.1-0.5c-0.4-0.2-0.9-0.2-1.4-0.2
			c-0.5,0-0.9,0.1-1.2,0.3C263.7,392.6,263.6,392.8,263.6,393.1z"/>
		<path class="st2" d="M282.2,399.6c0,0.4,0,0.7,0.1,1c0.1,0.3,0.2,0.5,0.3,0.7c0.1,0.2,0.3,0.4,0.5,0.5h-1.9c-0.4,0-0.7-0.1-1-0.3
			c-0.3-0.2-0.5-0.5-0.6-0.8c-0.1,0.1-0.3,0.3-0.5,0.4c-0.2,0.1-0.5,0.3-0.8,0.4c-0.3,0.1-0.6,0.3-1,0.4c-0.4,0.1-0.8,0.1-1.2,0.1
			c-0.4,0-0.9-0.1-1.3-0.2c-0.4-0.1-0.7-0.3-1-0.5c-0.3-0.2-0.5-0.6-0.7-0.9c-0.2-0.4-0.3-0.8-0.3-1.3c0-0.7,0.2-1.3,0.6-1.8
			c0.4-0.5,0.9-0.8,1.5-1.1c0.6-0.3,1.3-0.5,2.1-0.6c0.8-0.1,1.6-0.2,2.4-0.2v-1c0-0.6-0.2-1-0.5-1.4c-0.3-0.3-0.8-0.5-1.5-0.5
			c-0.4,0-0.8,0.1-1.2,0.2c-0.4,0.1-0.7,0.3-1,0.4c-0.3,0.2-0.7,0.4-1,0.6v-2.1c0.3-0.1,0.7-0.3,1.1-0.4c0.3-0.1,0.7-0.2,1.2-0.3
			s0.9-0.1,1.4-0.1c0.6,0,1.1,0.1,1.6,0.3c0.5,0.2,0.9,0.5,1.3,0.9c0.4,0.4,0.7,0.8,0.9,1.3c0.2,0.5,0.3,1,0.3,1.6V399.6z
			 M275.6,398.9c0,0.5,0.1,0.9,0.4,1.2c0.3,0.3,0.7,0.5,1.3,0.5c0.3,0,0.5,0,0.8-0.1c0.2-0.1,0.4-0.1,0.6-0.2
			c0.2-0.1,0.3-0.2,0.4-0.3c0.1-0.1,0.2-0.2,0.3-0.2v-3.4c-0.3,0-0.6,0.1-1,0.1c-0.4,0.1-0.8,0.2-1.3,0.4c-0.4,0.2-0.8,0.4-1.1,0.8
			C275.8,397.9,275.6,398.4,275.6,398.9z"/>
		<path class="st2" d="M297.6,400.6c0.1,0.3,0.2,0.5,0.3,0.7c0.1,0.2,0.3,0.4,0.5,0.5h-4.6c0.2-0.1,0.3-0.3,0.4-0.5
			c0.1-0.2,0.2-0.4,0.3-0.7c0.1-0.3,0.1-0.6,0.1-1v-4.6c0-1-0.2-1.7-0.6-2.1c-0.4-0.4-0.9-0.6-1.5-0.6c-0.4,0-0.7,0.1-0.9,0.2
			c-0.3,0.1-0.5,0.3-0.7,0.5c-0.2,0.2-0.4,0.4-0.5,0.6c-0.1,0.2-0.2,0.3-0.3,0.4v5.4c0,0.4,0,0.7,0.1,1c0.1,0.3,0.2,0.5,0.3,0.7
			c0.1,0.2,0.3,0.4,0.5,0.5h-4.6c0.2-0.1,0.3-0.3,0.4-0.5c0.1-0.2,0.2-0.4,0.3-0.7c0.1-0.3,0.1-0.6,0.1-1v-6c0-0.4,0-0.7-0.1-1
			c-0.1-0.3-0.2-0.5-0.3-0.7c-0.1-0.2-0.3-0.4-0.4-0.5l3.7-0.4v1.3c0.4-0.3,0.8-0.6,1.3-0.9c0.5-0.3,1.2-0.4,1.9-0.4
			c1.3,0,2.3,0.4,3,1.1c0.7,0.7,1,1.9,1,3.4v4.1C297.5,400,297.5,400.4,297.6,400.6z"/>
		<path class="st2" d="M311.1,399.6c0,0.4,0,0.7,0.1,1c0.1,0.3,0.2,0.5,0.3,0.7c0.1,0.2,0.3,0.4,0.5,0.5h-1.9c-0.4,0-0.7-0.1-1-0.3
			c-0.3-0.2-0.5-0.5-0.6-0.8c-0.1,0.1-0.3,0.3-0.5,0.4c-0.2,0.1-0.5,0.3-0.8,0.4c-0.3,0.1-0.6,0.3-1,0.4c-0.4,0.1-0.8,0.1-1.2,0.1
			c-0.4,0-0.9-0.1-1.3-0.2c-0.4-0.1-0.7-0.3-1-0.5c-0.3-0.2-0.5-0.6-0.7-0.9c-0.2-0.4-0.3-0.8-0.3-1.3c0-0.7,0.2-1.3,0.6-1.8
			c0.4-0.5,0.9-0.8,1.5-1.1c0.6-0.3,1.3-0.5,2.1-0.6c0.8-0.1,1.6-0.2,2.4-0.2v-1c0-0.6-0.2-1-0.5-1.4c-0.3-0.3-0.8-0.5-1.5-0.5
			c-0.4,0-0.8,0.1-1.2,0.2c-0.4,0.1-0.7,0.3-1,0.4c-0.3,0.2-0.7,0.4-1,0.6v-2.1c0.3-0.1,0.7-0.3,1.1-0.4c0.3-0.1,0.7-0.2,1.2-0.3
			c0.4-0.1,0.9-0.1,1.4-0.1c0.6,0,1.1,0.1,1.6,0.3c0.5,0.2,0.9,0.5,1.3,0.9c0.4,0.4,0.7,0.8,0.9,1.3c0.2,0.5,0.3,1,0.3,1.6V399.6z
			 M304.5,398.9c0,0.5,0.1,0.9,0.4,1.2c0.3,0.3,0.7,0.5,1.3,0.5c0.3,0,0.5,0,0.8-0.1c0.2-0.1,0.4-0.1,0.6-0.2
			c0.2-0.1,0.3-0.2,0.4-0.3c0.1-0.1,0.2-0.2,0.3-0.2v-3.4c-0.3,0-0.6,0.1-1,0.1c-0.4,0.1-0.8,0.2-1.3,0.4c-0.4,0.2-0.8,0.4-1.1,0.8
			C304.7,397.9,304.5,398.4,304.5,398.9z"/>
		<path class="st2" d="M319.2,400.6c0.1,0.3,0.2,0.5,0.3,0.7c0.1,0.2,0.3,0.4,0.5,0.5h-4.6c0.2-0.1,0.3-0.3,0.4-0.5
			c0.1-0.2,0.2-0.4,0.3-0.7c0.1-0.3,0.1-0.6,0.1-1v-11.4c0-0.4,0-0.7-0.1-1c-0.1-0.3-0.2-0.5-0.3-0.7c-0.1-0.2-0.3-0.4-0.4-0.5
			l3.7-0.4v14.1C319,400,319.1,400.4,319.2,400.6z"/>
		<path class="st2" d="M328.6,391c1.7,0,2.9,0.5,3.8,1.5c0.9,1,1.4,2.4,1.4,4.2h-7.9c0,0.7,0.1,1.2,0.3,1.7c0.2,0.5,0.5,0.9,0.8,1.2
			c0.3,0.3,0.7,0.6,1.1,0.7c0.4,0.2,0.9,0.2,1.4,0.2c0.7,0,1.4-0.1,1.9-0.3c0.5-0.2,1-0.4,1.4-0.6c0.4-0.3,0.8-0.5,1.1-0.8l-0.3,2.3
			c-0.3,0.1-0.7,0.3-1.2,0.4c-0.4,0.1-0.8,0.2-1.4,0.3s-1.2,0.1-1.9,0.1c-0.9,0-1.7-0.1-2.4-0.4c-0.7-0.3-1.4-0.6-1.9-1.1
			c-0.5-0.5-0.9-1.1-1.2-1.8c-0.3-0.7-0.4-1.5-0.4-2.4c0-0.9,0.2-1.7,0.5-2.4c0.3-0.7,0.7-1.2,1.2-1.7c0.5-0.4,1.1-0.8,1.8-1
			C327.2,391.1,327.9,391,328.6,391z M328.6,392.2c-0.7,0-1.3,0.2-1.8,0.7c-0.5,0.5-0.8,1.2-0.9,2.3h5.1c0-0.4,0-0.8-0.1-1.2
			c-0.1-0.4-0.2-0.7-0.4-1c-0.2-0.3-0.4-0.5-0.7-0.7C329.5,392.3,329.1,392.2,328.6,392.2z"/>
		<path class="st2" d="M339.9,393.1c0,0.3,0.1,0.6,0.4,0.9c0.3,0.2,0.7,0.5,1.1,0.7c0.4,0.2,0.9,0.5,1.4,0.7c0.5,0.2,1,0.5,1.4,0.8
			c0.4,0.3,0.8,0.7,1.1,1.1c0.3,0.4,0.4,0.9,0.4,1.5c0,0.5-0.1,1-0.4,1.4c-0.2,0.4-0.6,0.7-1,1c-0.4,0.3-0.9,0.5-1.4,0.6
			c-0.6,0.1-1.1,0.2-1.8,0.2c-0.7,0-1.2,0-1.7-0.1c-0.5-0.1-0.9-0.2-1.2-0.3c-0.4-0.1-0.7-0.3-1-0.5l-0.2-2.5c0.3,0.4,0.7,0.7,1.1,1
			c0.3,0.3,0.7,0.5,1.2,0.7c0.5,0.2,1,0.3,1.5,0.3c0.7,0,1.2-0.1,1.5-0.3c0.4-0.2,0.5-0.6,0.5-1c0-0.4-0.1-0.7-0.4-1
			c-0.3-0.3-0.6-0.5-1.1-0.8c-0.4-0.2-0.9-0.5-1.4-0.7c-0.5-0.2-1-0.5-1.4-0.8c-0.4-0.3-0.8-0.6-1.1-1c-0.3-0.4-0.4-0.9-0.4-1.4
			c0-0.4,0.1-0.7,0.2-1c0.2-0.3,0.4-0.6,0.7-0.9c0.3-0.3,0.7-0.5,1.2-0.6c0.5-0.2,1.1-0.2,1.8-0.2c0.5,0,1,0,1.4,0.1
			c0.5,0.1,0.8,0.2,1.2,0.3c0.4,0.1,0.8,0.3,1.1,0.4v2c-0.3-0.3-0.6-0.5-1-0.7c-0.3-0.2-0.7-0.4-1.1-0.5c-0.4-0.2-0.9-0.2-1.4-0.2
			c-0.5,0-0.9,0.1-1.2,0.3C340.1,392.6,339.9,392.8,339.9,393.1z"/>
	</g>
	<g>
		<g>
			<path class="st14" d="M136.4,339.4c0.6,0,1.1-0.1,1.6-0.2c0.5-0.1,0.8-0.2,1.1-0.3c0.4-0.2,0.7-0.3,0.9-0.5l-0.5,2.7h-10.4
				c0.2-0.1,0.3-0.3,0.4-0.5c0.1-0.2,0.2-0.4,0.3-0.7c0.1-0.3,0.1-0.6,0.1-1v-11.2c0-0.4,0-0.7-0.1-1c-0.1-0.3-0.2-0.5-0.3-0.7
				c-0.1-0.2-0.3-0.4-0.4-0.5h10.2v2.6c-0.2-0.2-0.5-0.3-0.8-0.5c-0.3-0.1-0.6-0.2-1-0.3s-0.9-0.2-1.5-0.2h-3.1v4.9h5.5l-0.3,2.3
				c-0.2-0.1-0.4-0.2-0.6-0.3c-0.2-0.1-0.5-0.1-0.9-0.2c-0.3-0.1-0.8-0.1-1.2-0.1h-2.4v5.7H136.4z"/>
			<path class="st14" d="M153.1,338.9c0,0.4,0,0.7,0.1,1c0.1,0.3,0.2,0.5,0.3,0.7c0.1,0.2,0.3,0.4,0.5,0.5h-1.9
				c-0.4,0-0.7-0.1-1-0.3c-0.3-0.2-0.5-0.5-0.6-0.9c-0.3,0.3-0.8,0.6-1.3,0.9c-0.5,0.3-1.2,0.4-1.9,0.4c-0.6,0-1.2-0.1-1.7-0.3
				c-0.5-0.2-1-0.5-1.4-1c-0.4-0.4-0.7-1-0.9-1.6c-0.2-0.7-0.3-1.5-0.3-2.4c0-0.8,0.1-1.6,0.4-2.3c0.2-0.7,0.6-1.2,1-1.7
				c0.4-0.5,1-0.8,1.6-1.1c0.6-0.2,1.3-0.4,2-0.4c0.5,0,1,0.1,1.4,0.2c0.4,0.1,0.8,0.2,1.1,0.4v-3.1c0-0.4,0-0.7-0.1-1
				c-0.1-0.2-0.2-0.5-0.3-0.6c-0.1-0.2-0.3-0.3-0.4-0.4l3.6-0.4V338.9z M145.7,335.8c0,0.7,0.1,1.3,0.2,1.8c0.1,0.5,0.3,0.9,0.5,1.2
				c0.2,0.3,0.5,0.5,0.8,0.7c0.3,0.1,0.6,0.2,0.9,0.2c0.6,0,1-0.1,1.4-0.3c0.4-0.2,0.7-0.5,0.9-0.7v-6.4c-0.2-0.1-0.4-0.3-0.7-0.4
				c-0.3-0.1-0.6-0.2-1-0.2c-0.4,0-0.8,0.1-1.1,0.2c-0.4,0.2-0.7,0.4-1,0.7c-0.3,0.3-0.5,0.8-0.7,1.3
				C145.7,334.5,145.7,335.1,145.7,335.8z"/>
			<path class="st14" d="M160.3,338.9c0,0.4,0,0.7,0.1,1c0.1,0.3,0.2,0.5,0.3,0.7c0.1,0.2,0.3,0.4,0.5,0.5h-4.5
				c0.2-0.1,0.3-0.3,0.4-0.5c0.1-0.2,0.2-0.4,0.3-0.7c0.1-0.3,0.1-0.6,0.1-1V333c0-0.4,0-0.7-0.1-1c-0.1-0.3-0.2-0.5-0.3-0.7
				c-0.1-0.2-0.3-0.4-0.4-0.5l3.6-0.4V338.9z M158.6,328.9c-0.5,0-0.8-0.2-1.2-0.5c-0.3-0.3-0.5-0.7-0.5-1.2c0-0.5,0.2-0.8,0.5-1.2
				c0.3-0.3,0.7-0.5,1.2-0.5c0.5,0,0.9,0.2,1.2,0.5c0.3,0.3,0.5,0.7,0.5,1.2c0,0.5-0.2,0.9-0.5,1.2
				C159.5,328.8,159.1,328.9,158.6,328.9z"/>
			<path class="st14" d="M169.5,339.8c0.6,0,1.1-0.1,1.6-0.3c0.5-0.2,0.8-0.4,1.2-0.6c0.4-0.3,0.7-0.6,1-0.9l-0.3,2.3
				c-0.3,0.2-0.7,0.3-1,0.5c-0.3,0.1-0.7,0.2-1.2,0.3c-0.5,0.1-1,0.1-1.6,0.1c-0.8,0-1.5-0.1-2.2-0.4c-0.7-0.2-1.2-0.6-1.7-1.1
				c-0.5-0.5-0.9-1-1.1-1.7s-0.4-1.5-0.4-2.3c0-0.9,0.2-1.7,0.5-2.4c0.3-0.7,0.7-1.2,1.2-1.7c0.5-0.4,1-0.8,1.7-1
				c0.6-0.2,1.3-0.3,1.9-0.3c0.5,0,1,0,1.4,0.1c0.4,0.1,0.8,0.2,1.1,0.3c0.4,0.1,0.7,0.2,1,0.4v2.3c-0.2-0.3-0.4-0.6-0.7-0.8
				c-0.2-0.2-0.6-0.4-0.9-0.6c-0.4-0.2-0.8-0.3-1.3-0.3c-0.4,0-0.8,0.1-1.1,0.2c-0.4,0.1-0.7,0.4-1,0.7c-0.3,0.3-0.5,0.7-0.7,1.2
				c-0.2,0.5-0.3,1.1-0.3,1.8c0,1.4,0.3,2.4,0.9,3.1C167.8,339.5,168.6,339.8,169.5,339.8z"/>
			<path class="st14" d="M179.5,338.9c0,0.4,0,0.7,0.1,1c0.1,0.3,0.2,0.5,0.3,0.7c0.1,0.2,0.3,0.4,0.5,0.5h-4.5
				c0.2-0.1,0.3-0.3,0.4-0.5c0.1-0.2,0.2-0.4,0.3-0.7c0.1-0.3,0.1-0.6,0.1-1V333c0-0.4,0-0.7-0.1-1c-0.1-0.3-0.2-0.5-0.3-0.7
				c-0.1-0.2-0.3-0.4-0.4-0.5l3.6-0.4V338.9z M177.9,328.9c-0.5,0-0.8-0.2-1.2-0.5c-0.3-0.3-0.5-0.7-0.5-1.2c0-0.5,0.2-0.8,0.5-1.2
				c0.3-0.3,0.7-0.5,1.2-0.5c0.5,0,0.9,0.2,1.2,0.5c0.3,0.3,0.5,0.7,0.5,1.2c0,0.5-0.2,0.9-0.5,1.2
				C178.7,328.8,178.3,328.9,177.9,328.9z"/>
			<path class="st14" d="M188.4,330.4c0.8,0,1.5,0.1,2.2,0.4c0.7,0.2,1.2,0.6,1.7,1c0.5,0.5,0.9,1,1.1,1.7c0.3,0.7,0.4,1.5,0.4,2.3
				s-0.1,1.6-0.4,2.3c-0.3,0.7-0.7,1.2-1.1,1.7c-0.5,0.5-1.1,0.8-1.7,1c-0.7,0.2-1.4,0.3-2.2,0.3s-1.5-0.1-2.2-0.3
				c-0.7-0.2-1.2-0.6-1.7-1s-0.9-1-1.1-1.7c-0.3-0.7-0.4-1.5-0.4-2.3s0.1-1.6,0.4-2.3c0.3-0.7,0.7-1.2,1.1-1.7
				c0.5-0.5,1.1-0.8,1.7-1C186.8,330.5,187.6,330.4,188.4,330.4z M188.1,331.8c-0.3,0-0.7,0.1-1,0.2c-0.3,0.1-0.6,0.4-0.8,0.7
				c-0.2,0.3-0.4,0.7-0.5,1.2c-0.1,0.5-0.2,1.1-0.1,1.9c0,0.7,0.2,1.4,0.3,1.9c0.2,0.5,0.4,0.9,0.7,1.2c0.3,0.3,0.6,0.5,0.9,0.7
				c0.3,0.1,0.7,0.2,1,0.2c0.3,0,0.7-0.1,1-0.2c0.3-0.1,0.6-0.4,0.8-0.7c0.2-0.3,0.4-0.7,0.5-1.2c0.1-0.5,0.2-1.1,0.1-1.9
				c0-0.7-0.2-1.4-0.3-1.9s-0.4-0.9-0.7-1.2c-0.3-0.3-0.6-0.5-0.9-0.7C188.8,331.9,188.5,331.8,188.1,331.8z M190.6,327.5l-2.8,1.8
				h-1.6l3.1-3.1L190.6,327.5z"/>
			<path class="st14" d="M207.2,339.9c0.1,0.3,0.2,0.5,0.3,0.7c0.1,0.2,0.3,0.4,0.5,0.5h-4.5c0.2-0.1,0.3-0.3,0.4-0.5
				c0.1-0.2,0.2-0.4,0.3-0.7c0.1-0.3,0.1-0.6,0.1-1v-4.5c0-1-0.2-1.7-0.6-2c-0.4-0.4-0.9-0.5-1.4-0.5c-0.3,0-0.7,0.1-0.9,0.2
				c-0.3,0.1-0.5,0.3-0.7,0.5c-0.2,0.2-0.4,0.4-0.5,0.6c-0.1,0.2-0.2,0.3-0.3,0.4v5.3c0,0.4,0,0.7,0.1,1c0.1,0.3,0.2,0.5,0.3,0.7
				c0.1,0.2,0.3,0.4,0.5,0.5h-4.5c0.2-0.1,0.3-0.3,0.4-0.5c0.1-0.2,0.2-0.4,0.3-0.7c0.1-0.3,0.1-0.6,0.1-1V333c0-0.4,0-0.7-0.1-1
				c-0.1-0.3-0.2-0.5-0.3-0.7c-0.1-0.2-0.3-0.4-0.4-0.5l3.6-0.4v1.2c0.3-0.3,0.8-0.6,1.3-0.9c0.5-0.3,1.2-0.4,1.9-0.4
				c1.3,0,2.3,0.4,3,1.1c0.7,0.7,1,1.8,1,3.4v4C207.1,339.3,207.1,339.6,207.2,339.9z"/>
			<path class="st14" d="M222,330.7c0.4-0.3,1-0.5,1.6-0.5c0.2,0,0.3,0,0.5,0c0.1,0,0.3,0,0.4,0.1c0.1,0,0.2,0.1,0.3,0.1v2.4
				c-0.1-0.1-0.2-0.1-0.4-0.2c-0.1,0-0.3-0.1-0.5-0.1c-0.2,0-0.4-0.1-0.6-0.1c-0.6,0-1,0.1-1.4,0.4c-0.3,0.3-0.6,0.6-0.7,1
				c-0.1,0.4-0.2,0.7-0.3,1c0,0.3,0,0.5,0,0.5v3.6c0,0.4,0,0.7,0.1,1c0.1,0.3,0.2,0.5,0.3,0.7c0.1,0.2,0.3,0.4,0.5,0.5h-4.5
				c0.2-0.1,0.3-0.3,0.4-0.5c0.1-0.2,0.2-0.4,0.3-0.7c0.1-0.3,0.1-0.6,0.1-1v-6.3c0-0.4,0-0.7-0.1-1c-0.1-0.3-0.2-0.5-0.3-0.7
				c-0.1-0.2-0.3-0.4-0.4-0.5h3.6v1.5C221.2,331.4,221.5,331,222,330.7z"/>
			<path class="st14" d="M232.5,330.4c1.6,0,2.9,0.5,3.8,1.5c0.9,1,1.3,2.4,1.3,4.1h-7.8c0,0.7,0.1,1.2,0.3,1.7
				c0.2,0.5,0.4,0.9,0.8,1.2c0.3,0.3,0.7,0.5,1.1,0.7c0.4,0.2,0.9,0.2,1.3,0.2c0.7,0,1.3-0.1,1.8-0.3c0.5-0.2,1-0.4,1.3-0.6
				c0.4-0.2,0.8-0.5,1.1-0.8l-0.3,2.3c-0.3,0.1-0.7,0.3-1.2,0.4c-0.4,0.1-0.8,0.2-1.4,0.3c-0.5,0.1-1.1,0.1-1.8,0.1
				c-0.9,0-1.6-0.1-2.4-0.4c-0.7-0.2-1.3-0.6-1.9-1.1c-0.5-0.5-0.9-1.1-1.2-1.7c-0.3-0.7-0.4-1.5-0.4-2.3c0-0.9,0.2-1.7,0.5-2.4
				c0.3-0.7,0.7-1.2,1.2-1.7c0.5-0.4,1.1-0.8,1.8-1C231.1,330.5,231.7,330.4,232.5,330.4z M232.4,331.6c-0.7,0-1.3,0.2-1.8,0.7
				c-0.5,0.5-0.8,1.2-0.9,2.3h5c0-0.4,0-0.8-0.1-1.1c-0.1-0.4-0.2-0.7-0.4-0.9c-0.2-0.3-0.4-0.5-0.7-0.6
				C233.3,331.7,232.9,331.6,232.4,331.6z"/>
			<path class="st14" d="M243.3,339.7c0,0.2,0.1,0.4,0.4,0.5c0.3,0.1,0.6,0.2,1,0.3c0.4,0.1,0.9,0.1,1.4,0.1c0.5,0,1.1,0.1,1.6,0.1
				c0.6,0,1.1,0.1,1.6,0.2c0.5,0.1,1,0.3,1.4,0.5c0.4,0.2,0.7,0.5,1,0.9c0.3,0.4,0.4,0.8,0.4,1.4c0,0.6-0.2,1.1-0.5,1.5
				c-0.3,0.4-0.8,0.8-1.3,1.2c-0.6,0.3-1.2,0.6-2,0.8c-0.8,0.2-1.6,0.3-2.5,0.3c-0.9,0-1.7-0.1-2.4-0.2c-0.7-0.2-1.3-0.4-1.7-0.6
				c-0.5-0.3-0.8-0.6-1.1-0.9c-0.2-0.3-0.4-0.7-0.4-1.1c0-0.5,0.1-0.9,0.4-1.1c0.3-0.2,0.6-0.4,1-0.5c0.4-0.1,0.9-0.1,1.4,0
				c-0.1,0.1-0.1,0.2-0.2,0.2c-0.1,0.1-0.1,0.2-0.1,0.3c0,0.1-0.1,0.3-0.1,0.5c0,0.3,0.1,0.7,0.3,0.9c0.2,0.3,0.4,0.5,0.7,0.7
				c0.3,0.2,0.6,0.3,1,0.4c0.4,0.1,0.8,0.1,1.2,0.1c0.6,0,1.1-0.1,1.6-0.2c0.4-0.1,0.8-0.3,1-0.5c0.2-0.2,0.4-0.4,0.5-0.7
				c0.1-0.3,0.2-0.5,0.2-0.7c0-0.6-0.2-1-0.6-1.2c-0.4-0.2-0.9-0.4-1.5-0.5c-0.6-0.1-1.2-0.1-1.9-0.2c-0.7,0-1.3,0-1.9-0.1
				c-0.6-0.1-1.1-0.2-1.5-0.4c-0.4-0.2-0.6-0.5-0.6-1c0-0.3,0.1-0.5,0.2-0.7c0.1-0.2,0.3-0.4,0.5-0.6c0.2-0.2,0.4-0.3,0.6-0.5
				c0.2-0.1,0.4-0.3,0.6-0.4c-0.8-0.4-1.4-0.9-1.8-1.5c-0.4-0.6-0.7-1.4-0.7-2.1c0-0.6,0.1-1.1,0.4-1.6c0.2-0.5,0.6-1,1-1.3
				c0.5-0.4,1-0.7,1.6-0.9c0.6-0.2,1.4-0.3,2.1-0.3c0.3,0,0.6,0,1,0.1c0.6-0.9,1.1-1.5,1.7-1.7s1.1-0.3,1.5-0.1
				c0.2,0.1,0.4,0.3,0.5,0.5c0.1,0.2,0.2,0.5,0.3,0.7c0.1,0.3,0.1,0.5,0.1,0.9c-0.3-0.2-0.5-0.3-0.8-0.3c-0.3,0-0.5,0-0.8,0
				c-0.2,0-0.5,0.1-0.7,0.2c-0.2,0.1-0.4,0.2-0.6,0.3c0.9,0.3,1.6,0.8,2.1,1.5c0.5,0.7,0.8,1.5,0.8,2.3c0,0.6-0.1,1.1-0.4,1.6
				c-0.2,0.5-0.6,1-1,1.3c-0.5,0.4-1,0.7-1.6,0.9c-0.6,0.2-1.4,0.3-2.1,0.3c-0.5,0-1.1-0.1-1.6-0.2c-0.2,0.1-0.5,0.3-0.7,0.5
				C243.4,339.3,243.3,339.5,243.3,339.7z M245.5,331.8c-0.7,0-1.3,0.2-1.7,0.7c-0.4,0.5-0.6,1.2-0.5,2.1c0.1,0.9,0.4,1.6,0.9,2.1
				c0.5,0.5,1.1,0.7,1.9,0.7s1.3-0.2,1.7-0.7c0.4-0.5,0.6-1.2,0.5-2.1c-0.1-0.9-0.4-1.6-0.9-2.1
				C246.9,332.1,246.3,331.8,245.5,331.8z"/>
			<path class="st14" d="M257.4,338.9c0,0.4,0,0.7,0.1,1c0.1,0.3,0.2,0.5,0.3,0.7c0.1,0.2,0.3,0.4,0.5,0.5h-4.5
				c0.2-0.1,0.3-0.3,0.4-0.5c0.1-0.2,0.2-0.4,0.3-0.7c0.1-0.3,0.1-0.6,0.1-1V333c0-0.4,0-0.7-0.1-1c-0.1-0.3-0.2-0.5-0.3-0.7
				c-0.1-0.2-0.3-0.4-0.4-0.5l3.6-0.4V338.9z M255.7,328.9c-0.5,0-0.8-0.2-1.2-0.5c-0.3-0.3-0.5-0.7-0.5-1.2c0-0.5,0.2-0.8,0.5-1.2
				c0.3-0.3,0.7-0.5,1.2-0.5c0.5,0,0.9,0.2,1.2,0.5c0.3,0.3,0.5,0.7,0.5,1.2c0,0.5-0.2,0.9-0.5,1.2
				C256.6,328.8,256.2,328.9,255.7,328.9z"/>
			<path class="st14" d="M266.2,330.4c0.8,0,1.5,0.1,2.2,0.4c0.7,0.2,1.2,0.6,1.7,1c0.5,0.5,0.9,1,1.1,1.7c0.3,0.7,0.4,1.5,0.4,2.3
				s-0.1,1.6-0.4,2.3c-0.3,0.7-0.7,1.2-1.1,1.7c-0.5,0.5-1.1,0.8-1.7,1c-0.7,0.2-1.4,0.3-2.2,0.3c-0.8,0-1.5-0.1-2.2-0.3
				c-0.7-0.2-1.2-0.6-1.7-1c-0.5-0.5-0.9-1-1.1-1.7c-0.3-0.7-0.4-1.5-0.4-2.3s0.1-1.6,0.4-2.3c0.3-0.7,0.7-1.2,1.1-1.7
				c0.5-0.5,1.1-0.8,1.7-1C264.7,330.5,265.4,330.4,266.2,330.4z M266,331.8c-0.3,0-0.7,0.1-1,0.2c-0.3,0.1-0.6,0.4-0.8,0.7
				c-0.2,0.3-0.4,0.7-0.5,1.2c-0.1,0.5-0.2,1.1-0.1,1.9c0,0.7,0.2,1.4,0.3,1.9c0.2,0.5,0.4,0.9,0.7,1.2c0.3,0.3,0.6,0.5,0.9,0.7
				c0.3,0.1,0.7,0.2,1,0.2c0.3,0,0.7-0.1,1-0.2c0.3-0.1,0.6-0.4,0.8-0.7c0.2-0.3,0.4-0.7,0.5-1.2c0.1-0.5,0.2-1.1,0.1-1.9
				c0-0.7-0.2-1.4-0.3-1.9c-0.2-0.5-0.4-0.9-0.7-1.2c-0.3-0.3-0.6-0.5-0.9-0.7C266.7,331.9,266.3,331.8,266,331.8z"/>
			<path class="st14" d="M285.1,339.9c0.1,0.3,0.2,0.5,0.3,0.7c0.1,0.2,0.3,0.4,0.5,0.5h-4.5c0.2-0.1,0.3-0.3,0.4-0.5
				c0.1-0.2,0.2-0.4,0.3-0.7c0.1-0.3,0.1-0.6,0.1-1v-4.5c0-1-0.2-1.7-0.6-2c-0.4-0.4-0.9-0.5-1.4-0.5c-0.3,0-0.7,0.1-0.9,0.2
				c-0.3,0.1-0.5,0.3-0.7,0.5c-0.2,0.2-0.4,0.4-0.5,0.6c-0.1,0.2-0.2,0.3-0.3,0.4v5.3c0,0.4,0,0.7,0.1,1c0.1,0.3,0.2,0.5,0.3,0.7
				c0.1,0.2,0.3,0.4,0.5,0.5h-4.5c0.2-0.1,0.3-0.3,0.4-0.5c0.1-0.2,0.2-0.4,0.3-0.7c0.1-0.3,0.1-0.6,0.1-1V333c0-0.4,0-0.7-0.1-1
				c-0.1-0.3-0.2-0.5-0.3-0.7c-0.1-0.2-0.3-0.4-0.4-0.5l3.6-0.4v1.2c0.3-0.3,0.8-0.6,1.3-0.9c0.5-0.3,1.2-0.4,1.9-0.4
				c1.3,0,2.3,0.4,3,1.1c0.7,0.7,1,1.8,1,3.4v4C285,339.3,285,339.6,285.1,339.9z"/>
			<path class="st14" d="M297.8,338.9c0,0.4,0,0.7,0.1,1c0.1,0.3,0.2,0.5,0.3,0.7c0.1,0.2,0.3,0.4,0.5,0.5h-1.9
				c-0.4,0-0.7-0.1-1-0.3c-0.3-0.2-0.5-0.5-0.6-0.8c-0.1,0.1-0.3,0.2-0.5,0.4c-0.2,0.1-0.5,0.3-0.8,0.4c-0.3,0.1-0.6,0.3-1,0.3
				c-0.4,0.1-0.7,0.1-1.1,0.1c-0.4,0-0.8-0.1-1.2-0.2c-0.4-0.1-0.7-0.3-1-0.5c-0.3-0.2-0.5-0.5-0.7-0.9c-0.2-0.4-0.3-0.8-0.3-1.3
				c0-0.7,0.2-1.3,0.6-1.7c0.4-0.5,0.9-0.8,1.5-1.1c0.6-0.3,1.3-0.5,2.1-0.6c0.8-0.1,1.6-0.2,2.4-0.2v-0.9c0-0.6-0.1-1-0.4-1.3
				c-0.3-0.3-0.8-0.5-1.4-0.5c-0.4,0-0.8,0.1-1.1,0.2c-0.4,0.1-0.7,0.3-1,0.4c-0.3,0.2-0.6,0.4-0.9,0.6v-2.1c0.3-0.1,0.7-0.3,1-0.4
				c0.3-0.1,0.7-0.2,1.1-0.3c0.4-0.1,0.9-0.1,1.4-0.1c0.6,0,1.1,0.1,1.6,0.3c0.5,0.2,0.9,0.5,1.3,0.9c0.4,0.4,0.7,0.8,0.9,1.3
				c0.2,0.5,0.3,1,0.3,1.6V338.9z M291.3,338.2c0,0.5,0.1,0.9,0.4,1.2c0.2,0.3,0.7,0.5,1.3,0.5c0.3,0,0.5,0,0.8-0.1
				c0.2-0.1,0.4-0.1,0.6-0.2c0.2-0.1,0.3-0.2,0.4-0.3c0.1-0.1,0.2-0.2,0.3-0.2v-3.4c-0.3,0-0.6,0.1-1,0.1c-0.4,0.1-0.8,0.2-1.2,0.4
				c-0.4,0.2-0.7,0.4-1,0.7C291.4,337.2,291.3,337.6,291.3,338.2z"/>
			<path class="st14" d="M305.1,339.9c0.1,0.3,0.2,0.5,0.3,0.7c0.1,0.2,0.3,0.4,0.5,0.5h-4.5c0.2-0.1,0.3-0.3,0.4-0.5
				c0.1-0.2,0.2-0.4,0.3-0.7c0.1-0.3,0.1-0.6,0.1-1v-11.2c0-0.4,0-0.7-0.1-1c-0.1-0.3-0.2-0.5-0.3-0.7c-0.1-0.2-0.3-0.4-0.4-0.5
				l3.6-0.4v13.9C305,339.3,305,339.6,305.1,339.9z"/>
			<path class="st14" d="M313.8,330.4c1.6,0,2.9,0.5,3.8,1.5c0.9,1,1.3,2.4,1.3,4.1h-7.8c0,0.7,0.1,1.2,0.3,1.7
				c0.2,0.5,0.4,0.9,0.8,1.2c0.3,0.3,0.7,0.5,1.1,0.7c0.4,0.2,0.9,0.2,1.3,0.2c0.7,0,1.3-0.1,1.8-0.3c0.5-0.2,1-0.4,1.3-0.6
				c0.4-0.2,0.8-0.5,1.1-0.8l-0.3,2.3c-0.3,0.1-0.7,0.3-1.2,0.4c-0.4,0.1-0.8,0.2-1.4,0.3c-0.5,0.1-1.1,0.1-1.8,0.1
				c-0.9,0-1.6-0.1-2.4-0.4c-0.7-0.2-1.3-0.6-1.9-1.1c-0.5-0.5-0.9-1.1-1.2-1.7s-0.4-1.5-0.4-2.3c0-0.9,0.2-1.7,0.5-2.4
				c0.3-0.7,0.7-1.2,1.2-1.7c0.5-0.4,1.1-0.8,1.8-1C312.4,330.5,313.1,330.4,313.8,330.4z M313.8,331.6c-0.7,0-1.3,0.2-1.8,0.7
				c-0.5,0.5-0.8,1.2-0.9,2.3h5c0-0.4,0-0.8-0.1-1.1c-0.1-0.4-0.2-0.7-0.4-0.9c-0.2-0.3-0.4-0.5-0.7-0.6
				C314.7,331.7,314.3,331.6,313.8,331.6z"/>
			<path class="st14" d="M324.4,332.4c0,0.3,0.1,0.6,0.4,0.8c0.3,0.2,0.7,0.5,1.1,0.7s0.9,0.4,1.4,0.7c0.5,0.2,1,0.5,1.4,0.8
				c0.4,0.3,0.8,0.7,1.1,1.1c0.3,0.4,0.4,0.9,0.4,1.5c0,0.5-0.1,1-0.3,1.4c-0.2,0.4-0.5,0.7-0.9,1c-0.4,0.3-0.9,0.5-1.4,0.6
				c-0.5,0.1-1.1,0.2-1.7,0.2c-0.7,0-1.2,0-1.7-0.1c-0.5-0.1-0.9-0.2-1.2-0.3c-0.4-0.1-0.7-0.3-1-0.5l-0.2-2.5
				c0.3,0.4,0.7,0.7,1.1,1c0.3,0.2,0.7,0.5,1.2,0.7c0.5,0.2,1,0.3,1.5,0.3c0.6,0,1.1-0.1,1.5-0.3c0.4-0.2,0.5-0.5,0.5-1
				c0-0.4-0.1-0.7-0.4-1c-0.3-0.3-0.6-0.5-1.1-0.8c-0.4-0.2-0.9-0.5-1.4-0.7c-0.5-0.2-1-0.5-1.4-0.8c-0.4-0.3-0.8-0.6-1.1-1
				c-0.3-0.4-0.4-0.8-0.4-1.4c0-0.3,0.1-0.7,0.2-1c0.2-0.3,0.4-0.6,0.7-0.9c0.3-0.3,0.7-0.5,1.2-0.6c0.5-0.2,1.1-0.2,1.8-0.2
				c0.5,0,0.9,0,1.4,0.1c0.4,0.1,0.8,0.2,1.2,0.3c0.4,0.1,0.8,0.3,1.1,0.4v2c-0.3-0.3-0.6-0.5-1-0.7c-0.3-0.2-0.7-0.4-1.1-0.5
				c-0.4-0.2-0.9-0.2-1.4-0.2c-0.5,0-0.9,0.1-1.1,0.3C324.5,332,324.4,332.2,324.4,332.4z"/>
		</g>
	</g>
	<g>
		<path class="st15" d="M105.2,220.8c0,0-4.3,1.3-6.3-1.3s-19.9,2.8-23.2,13.3c-3.2,10.5,3.5,33.6,22.3,36
			c18.8,2.4,25.9-23.7,25.5-31.2C123.2,230.1,111,218.7,105.2,220.8z"/>
		
			<linearGradient id="SVGID_00000001645141842613273340000015516826057924602005_" gradientUnits="userSpaceOnUse" x1="77.3843" y1="244.3758" x2="121.1998" y2="244.3758">
			<stop  offset="0.1704" style="stop-color:#F0D498"/>
			<stop  offset="1" style="stop-color:#E9A686"/>
		</linearGradient>
		<path style="fill:url(#SVGID_00000001645141842613273340000015516826057924602005_);" d="M104.6,223.5c0,0-3.9,1.2-5.7-1.2
			c-1.8-2.3-18,2.5-20.9,12c-2.9,9.5,3.2,30.3,20.1,32.5s23.4-21.3,23-28.1S109.8,221.6,104.6,223.5z"/>
		<path class="st17" d="M98,223.5c0,0-13.1,2.4-14.6,13.4c-1.5,11,1.7,26,11.2,29.4c0,0-9.7-11.5-7.2-27.6
			C89.3,226.7,98,223.5,98,223.5z"/>
		<path class="st18" d="M104.1,228.5c0,0-0.6-1.5,2.9-1.5c3.5,0,8.3,7.7,7,17.3c-1.3,9.6-5.9,19.4-9.7,21c-3.7,1.6-2.7-2.1-0.9-4.5
			c1.8-2.4,3.9-10.8,3.5-16.5C106.6,238.7,101.6,233.4,104.1,228.5z"/>
		<path class="st19" d="M98.9,219.5c0,0,1.8,0.5,2.9-1.9c1.1-2.3,3.8-5.9,3.8-5.9c2.9,0.5,2.4,0,2.4,0s-2.2,2.6-2.6,3.9
			c-0.4,1.3-1.1,3.9-1.1,3.9l1.6,2.2h-1.8h-2.3H100L98.9,219.5z"/>
	</g>
	<g>
		<path class="st20" d="M124.7,231c0,0-4.5,0.1-5.7-2.9c-1.2-3-19.9-2.7-25.9,6.6c-6,9.3-5.7,32.5,11.8,39.9s33-9.9,33-22.3
			C137.9,241.2,130.9,230.6,124.7,231z"/>
		
			<linearGradient id="SVGID_00000098179046712605410490000009765502536712661171_" gradientUnits="userSpaceOnUse" x1="91.7749" y1="251.3407" x2="135.3042" y2="251.3407">
			<stop  offset="0.1704" style="stop-color:#F0D498"/>
			<stop  offset="1" style="stop-color:#E9A686"/>
		</linearGradient>
		<path style="fill:url(#SVGID_00000098179046712605410490000009765502536712661171_);" d="M123.4,233.5c0,0-4.1,0.1-5.1-2.7
			s-18-2.4-23.3,5.9c-5.4,8.3-5.1,28.4,10.6,35.1c15.7,6.7,28.8-9.9,29.7-21.5C135.8,243.6,129,233.1,123.4,233.5z"/>
		<path class="st22" d="M117,231.7c0,0-13.3-1.2-17.7,8.9c-4.4,10.2-5.4,25.5,2.9,31.3c0,0-6.2-13.7,0.5-28.5
			C107.8,232.4,117,231.7,117,231.7z"/>
		<path class="st10" d="M121.6,238.2c0,0-0.1-1.6,3.2-0.7c3.3,0.9,5.9,9.6,2,18.6c-3.9,8.9-10.9,17.1-15,17.6c-4,0.5-2-2.8,0.4-4.6
			s6.7-9.3,7.9-14.9C121.3,248.6,117.9,242.1,121.6,238.2z"/>
		<path class="st19" d="M119,228.1c0,0,1.6,0.9,3.3-1c1.7-2,5.2-4.7,5.2-4.7c2.6,1.3,2.3,0.7,2.3,0.7s-2.9,1.9-3.6,3.1
			c-0.7,1.2-2.1,3.5-2.1,3.5l1,2.6l-1.7-0.5l-2.2-0.6l-1.7-0.5L119,228.1z"/>
	</g>
	<g>
		<g>
			<path class="st4" d="M341.5,243.2c0,0-5,1.9-2.8,4.5c2.1,2.5,5,9.2,9.2,8.3C352.1,255.2,344.3,238.8,341.5,243.2z"/>
			<path class="st4" d="M366.8,247.1c0,0-4.8-2.2-5.2,1.1s-3.1,9.9,0.4,12.4C365.7,263.1,372,246,366.8,247.1z"/>
			<path class="st4" d="M334.8,257.4c0,0-4.5,2.9-1.9,5s6.7,8,10.7,6.3C347.6,267,336.7,252.4,334.8,257.4z"/>
			<path class="st4" d="M353.5,243.2c0,0-2.8,11.6,0,15.3c2.8,3.7,7.5-5.7,6.2-8.1c-1.3-2.4-1.3-2.4-1.3-2.4
				S359.6,238.6,353.5,243.2z"/>
			<circle class="st4" cx="353.7" cy="271.6" r="4.6"/>
			<circle class="st4" cx="382.1" cy="263.3" r="4.6"/>
			<ellipse class="st4" cx="370.2" cy="256" rx="3.2" ry="6.7"/>
			
				<ellipse transform="matrix(0.7854 -0.6189 0.6189 0.7854 -86.5956 269.1018)" class="st4" cx="344.8" cy="259.5" rx="3.2" ry="6.7"/>
			
				<ellipse transform="matrix(0.7854 -0.6189 0.6189 0.7854 -84.2811 275.7785)" class="st4" cx="355.6" cy="259.5" rx="3.2" ry="6.7"/>
			<ellipse class="st4" cx="365.1" cy="243.5" rx="5.1" ry="8.9"/>
			<ellipse transform="matrix(0.9375 -0.348 0.348 0.9375 -63.1856 146.7331)" class="st4" cx="376.9" cy="249.3" rx="3.9" ry="8"/>
			<ellipse transform="matrix(0.9375 -0.348 0.348 0.9375 -70.4572 144.8628)" class="st4" cx="368" cy="268.6" rx="4.6" ry="8.6"/>
		</g>
		<g>
			<path class="st23" d="M339.1,242.1c0,0-5,1.9-2.8,4.5c2.1,2.5,5,9.2,9.2,8.3S342,237.6,339.1,242.1z"/>
			<path class="st23" d="M364.5,246c0,0-4.8-2.2-5.2,1.1c-0.3,3.3-3.1,9.9,0.4,12.4S369.7,244.9,364.5,246z"/>
			<path class="st24" d="M332.5,256.2c0,0-4.5,2.9-1.9,5s6.7,8,10.7,6.3S334.4,251.2,332.5,256.2z"/>
			<path class="st25" d="M351.2,242.1c0,0-2.8,11.6,0,15.3c2.8,3.7,7.5-5.7,6.2-8.1s-1.3-2.4-1.3-2.4S357.2,237.4,351.2,242.1z"/>
			<circle class="st26" cx="351.4" cy="270.4" r="4.6"/>
			<circle class="st26" cx="379.7" cy="262.2" r="4.6"/>
			<ellipse class="st24" cx="367.8" cy="254.8" rx="3.2" ry="6.7"/>
			
				<ellipse transform="matrix(0.7854 -0.6189 0.6189 0.7854 -86.3717 267.3887)" class="st25" cx="342.5" cy="258.3" rx="3.2" ry="6.7"/>
			
				<ellipse transform="matrix(0.7854 -0.6189 0.6189 0.7854 -84.0572 274.0654)" class="st23" cx="353.3" cy="258.3" rx="3.2" ry="6.7"/>
			<ellipse class="st23" cx="362.7" cy="242.4" rx="5.1" ry="8.9"/>
			
				<ellipse transform="matrix(0.9375 -0.348 0.348 0.9375 -62.9225 145.8384)" class="st23" cx="374.5" cy="248.1" rx="3.9" ry="8"/>
			
				<ellipse transform="matrix(0.9375 -0.348 0.348 0.9375 -70.1942 143.9681)" class="st23" cx="365.7" cy="267.4" rx="4.6" ry="8.6"/>
		</g>
	</g>
</g>
</svg>
